<?xml version="1.0" standalone="no"?>
<!DOCTYPE svg PUBLIC "-//W3C//DTD SVG 1.1//EN" "http://www.w3.org/Graphics/SVG/1.1/DTD/svg11.dtd" >
<svg xmlns="http://www.w3.org/2000/svg">
<metadata>
Created by FontForge 20120731 at Sun Jun 18 13:37:15 2017
 By admin
</metadata>
<defs>
<font id="iconfont" horiz-adv-x="1024" >
  <font-face 
    font-family="iconfont"
    font-weight="500"
    font-stretch="normal"
    units-per-em="1024"
    panose-1="2 0 6 3 0 0 0 0 0 0"
    ascent="896"
    descent="-128"
    x-height="792"
    bbox="0 -184 1024.33 896.161"
    underline-thickness="0"
    underline-position="0"
    unicode-range="U+0078-E8FE"
  />
<missing-glyph 
 />
    <glyph glyph-name=".notdef" 
 />
    <glyph glyph-name=".notdef" 
 />
    <glyph glyph-name=".null" horiz-adv-x="0" 
 />
    <glyph glyph-name="nonmarkingreturn" horiz-adv-x="341" 
 />
    <glyph glyph-name="x" unicode="x" horiz-adv-x="1001" 
d="M281 543q-27 -1 -53 -1h-83q-18 0 -36.5 -6t-32.5 -18.5t-23 -32t-9 -45.5v-76h912v41q0 16 -0.5 30t-0.5 18q0 13 -5 29t-17 29.5t-31.5 22.5t-49.5 9h-133v-97h-438v97zM955 310v-52q0 -23 0.5 -52t0.5 -58t-10.5 -47.5t-26 -30t-33 -16t-31.5 -4.5q-14 -1 -29.5 -0.5
t-29.5 0.5h-32l-45 128h-439l-44 -128h-29h-34q-20 0 -45 1q-25 0 -41 9.5t-25.5 23t-13.5 29.5t-4 30v167h911zM163 247q-12 0 -21 -8.5t-9 -21.5t9 -21.5t21 -8.5q13 0 22 8.5t9 21.5t-9 21.5t-22 8.5zM316 123q-8 -26 -14 -48q-5 -19 -10.5 -37t-7.5 -25t-3 -15t1 -14.5
t9.5 -10.5t21.5 -4h37h67h81h80h64h36q23 0 34 12t2 38q-5 13 -9.5 30.5t-9.5 34.5q-5 19 -11 39h-368zM336 498v228q0 11 2.5 23t10 21.5t20.5 15.5t34 6h188q31 0 51.5 -14.5t20.5 -52.5v-227h-327z" />
    <glyph glyph-name="yinle" unicode="&#xe630;" 
d="M890 559q0 14 -10 23.5t-24.5 9.5t-24.5 -9.5t-10 -23.5v0v-643h69v643v0zM167.5 363q-14.5 0 -24.5 -10t-10 -24v0v-413h69v413v0q0 14 -10 24t-24.5 10zM397 684q-14 0 -24 -10t-11 -24v0v-734h69v734v0q0 14 -10 24t-24 10zM626 478q-14 0 -24 -10t-10 -24v0v-528h69
v528v0q-1 14 -11 24t-24 10z" />
    <glyph glyph-name="shoucang" unicode="&#xe6aa;" 
d="M511 80l-196 -108l38 229l-158 161l218 33l98 208l97 -208l218 -33l-158 -161l38 -229zM957 407l-308 47l-138 294l-138 -294l-309 -47l223 -229l-53 -323l277 153l276 -153l-53 323z" />
    <glyph glyph-name="video" unicode="&#xe737;" 
d="M384 524q0 66 47 113t113 47t113 -47t47 -113t-47 -113t-113 -47t-113 47t-47 113v0zM0 524q0 66 47 113t113 47t113 -47t47 -113t-47 -113t-113 -47t-113 47t-47 113v0zM768 204v96q0 26 -19 45t-45 19h-640q-26 0 -45 -19t-19 -45v-320q0 -26 19 -45t45 -19h640
q26 0 45 19t19 45v96l256 -160v448zM640 44h-512v192h512v-192z" />
    <glyph glyph-name="bohao" unicode="&#xe631;" 
d="M163.5 716q5.5 0 9.5 -4l150 -150q10 -10 0 -20l-25 -25q-37 -37 -37 -90t37 -91l250 -250q38 -37 91 -37t90 37l25 25q4 4 10 4t10 -4l150 -150q4 -4 4 -9.5t-4 -10.5l-50 -50q-18 -18 -59 -18q-79 0 -205 69t-256 200q-169 168 -238 333q-27 65 -30.5 115.5t17.5 71.5
l50 50q5 4 10.5 4zM163 773q-29 0 -50 -21l-50 -50q-28 -29 -33.5 -77t12.5 -109t54 -129.5t92 -142t125 -143.5q132 -131 268.5 -208t233.5 -77q64 0 99 35l50 50q21 21 21 50.5t-21 49.5l-150 150q-21 21 -50.5 21t-49.5 -21l-25 -25q-21 -20 -50.5 -20t-49.5 20l-251 251
q-20 20 -20 49.5t20 50.5l25 25q21 21 21 50t-21 50l-150 150q-20 21 -50 21v0z" />
    <glyph glyph-name="button" unicode="&#xe8fe;" 
d="M782 431q-20 0 -37 -8q-5 31 -29.5 52.5t-56.5 21.5q-20 0 -38 -9q-6 31 -30 51.5t-56 20.5q-19 0 -36 -8v23q39 23 62.5 62.5t23.5 85.5q0 72 -51 122.5t-122 50.5t-122 -50.5t-51 -122.5q0 -46 23.5 -85.5t62.5 -62.5v-162l-2 5q-11 25 -32.5 39.5t-48.5 14.5
q-17 0 -33 -6q-33 -14 -47 -47.5t0 -66.5l126 -307v-1q39 -80 113 -126t162 -46q127 0 216.5 89.5t89.5 216.5v166q0 36 -25.5 61.5t-61.5 25.5zM290 723q0 51 36 86.5t86 35.5t86 -35.5t36 -86.5q0 -49 -35 -84v85q0 36 -25.5 61.5t-61.5 25.5t-61.5 -25.5t-25.5 -61.5v-85
q-35 35 -35 84zM818 178v0q0 -106 -74.5 -180.5t-180.5 -74.5q-73 0 -134.5 38.5t-94.5 104.5l-125 305q-6 14 -0.5 28t19.5 20q7 3 14 3q24 0 34 -23l100 -236v561q0 15 10.5 25.5t25.5 10.5t25.5 -10.5t10.5 -25.5v-381q0 -11 7.5 -18.5t18 -7.5t18 7.5t7.5 18.5v130
q0 15 10.5 25.5t25.5 10.5t26 -10.5t11 -25.5v-175q0 -11 7 -18.5t18 -7.5t18 7.5t7 18.5v112q0 15 11 25.5t26 10.5t25.5 -10.5t10.5 -25.5v-157v0v0q0 -11 7.5 -18.5t18 -7.5t18 7.5t7.5 18.5v0v91q0 15 10.5 25.5t25.5 10.5t25.5 -10.5t10.5 -25.5v-166v0z" />
    <glyph glyph-name="list" unicode="&#xe658;" 
d="M887 114l-113 176q75 91 75 208q0 90 -45.5 166t-123.5 120.5t-169.5 44.5t-169.5 -44.5t-123.5 -120.5t-45.5 -166q0 -119 77 -210l-112 -174q-9 -13 -5 -28q0 -5 1 -10q5 -14 19 -20.5t29 -1.5h70l30 -82q13 -30 35 -32q25 -5 39 15l126 213q15 -1 30 -1q16 0 32 1
l121 -203q5 -15 19 -21q20 -11 38 2q13 8 16 22l2 4l29 82h75q15 -5 29 1.5t19 20.5q1 5 1 10q4 15 -5 28zM330 59l-11 30q0 6 -2 12q-11 30 -48 26h-35l70 109q45 -35 100 -53zM511 254q-103 0 -176 71.5t-73 172.5t73 172.5t176 71.5t176 -71.5t73 -172.5t-73 -172.5
t-176 -71.5zM692 63l-72 121q54 18 99 53l71 -110h-35q-34 3 -46 -22q-3 -5 -6 -12z" />
    <glyph glyph-name="iconmusicm" unicode="&#xe678;" 
d="M802 730l-4 -8l-14 -29l-159 -334q-14 54 -49.5 97t-86.5 68q-67 28 -132 23.5t-122 -43t-87 -101.5q-29 -66 -24.5 -131t43.5 -122.5t102 -87.5q66 -28 131 -23.5t122 43t87 101.5l6 12v0l192 402q13 -14 31 -22q26 -12 50 -13t47 15t38 48l6 13l3 7z" />
    <glyph glyph-name="shouye" unicode="&#xe61c;" 
d="M869 383q-1 67 66 129q8 7 9.5 18t-3.5 21q-54 89 -63 107q-2 4 -5 8q-13 16 -32 11q-10 -3 -28 -6.5t-60.5 0.5t-72.5 22q-54 34 -69 113q-2 11 -11 18.5t-20 7.5h-131q-12 0 -20.5 -7.5t-10.5 -19.5q-2 -8 -6 -23t-23 -45.5t-46 -48.5q-59 -37 -154 -11q-23 6 -35 -14
q-65 -108 -69 -114q-6 -10 -5 -21q2 -14 13 -22q7 -4 18 -14t29 -39t20 -58q5 -68 -70 -139q-19 -18 -6 -39l71 -116q6 -10 17 -13.5t22 0.5q8 4 21.5 8t48.5 4.5t63 -12.5q63 -31 90 -129q3 -10 11.5 -16.5t19.5 -6.5h133q11 0 19.5 7t10.5 18q1 3 2.5 9.5t7.5 22t14.5 30
t23 30.5t31.5 27q59 36 149 10q23 -6 36 14q58 100 64 110q5 8 5 18q-1 14 -11 22q-6 6 -17.5 18t-29 45.5t-17.5 65.5zM879 639q0 -3 -2 -6q2 3 2 6zM880 646v-7v7zM832 156q-101 22 -175 -23q-70 -43 -100 -134h-86q-37 107 -117 145q-71 34 -159 10l-44 74q78 84 72 172
q-6 76 -71 138q9 16 43 73q107 -23 182 25q68 43 96 133h82q25 -87 92 -129q76 -47 185 -29q11 -18 42 -71q-69 -74 -68 -158q2 -82 67 -156q-11 -19 -41 -70zM391 459q-13 0 -22.5 -9t-9.5 -22v-31q0 -13 9.5 -22t22.5 -9t22 9t9 22v31q0 13 -9 22t-22 9zM634 459
q-13 0 -22 -9t-9 -22v-31q0 -13 9 -22t22 -9t22.5 9t9.5 22v31q0 13 -9.5 22t-22.5 9zM670 323q-11 7 -23.5 4t-19.5 -14q-19 -30 -49.5 -47.5t-65.5 -17.5t-65 17.5t-49 47.5q-7 11 -19.5 14t-23.5 -4t-14 -19.5t4 -23.5q28 -44 72 -69t95 -25q52 0 96.5 25t71.5 69
q7 11 4 23.5t-14 19.5zM428 495q8 0 15 4q35 20 67 20q39 0 71 -20q11 -6 23.5 -3t19.5 14t4 23.5t-14 19.5q-48 29 -104 29q-48 0 -98 -29q-11 -6 -14.5 -18.5t3.5 -24.5q9 -15 27 -15z" />
    <glyph glyph-name="iconfontbiaozhunmoban01-copy" unicode="&#xe603;" 
d="M675 718l-37 10l-118 -478q-37 29 -84.5 32.5t-87 -17.5t-57.5 -58q-14 -30 1 -70q15 -42 53 -56.5t83 -2t82 45.5q23 20 34 45.5t25 84.5l73 296q34 -7 71 -51t40 -82q2 -27 -5.5 -54.5t-24.5 -45.5q-25 -28 -14 -26q18 4 41 25q23 22 35 53q16 38 13.5 73.5t-16.5 60.5
t-34 52.5t-38 50t-28.5 52.5t-6.5 60zM512 -56q-90 0 -171 34q-79 34 -140 95t-95 140q-34 81 -34 171t34 171q34 79 95 140t140 95q81 34 171 34t171 -34q79 -34 140 -95t95 -140q34 -81 34 -171t-34 -171q-34 -79 -95 -140t-140 -95q-81 -34 -171 -34zM512 796
q-84 0 -160 -33q-74 -31 -131 -88t-88 -131q-33 -76 -33 -160t33 -160q31 -74 88 -131t131 -88q76 -33 160 -33t160 33q74 31 131 88t88 131q33 76 33 160t-33 160q-31 74 -88 131t-131 88q-76 33 -160 33z" />
    <glyph glyph-name="icondingwei" unicode="&#xe647;" 
d="M789 245v-41q89 -23 140.5 -56.5t51.5 -72.5q0 -44 -62.5 -81t-171 -58t-235.5 -21t-235.5 21t-171 58t-62.5 81q0 39 51.5 72.5t140.5 56.5v41q-108 -28 -171.5 -73t-63.5 -97q0 -55 68.5 -102t186.5 -74t257 -27t257 27t186.5 74t68.5 102q0 52 -63.5 97t-171.5 73z
M512 43q7 5 18.5 14.5t44.5 40.5t63.5 62.5t67 77.5t63.5 88.5t45 92.5t18 93q0 159 -93.5 271.5t-226.5 112.5t-226.5 -112.5t-93.5 -271.5q0 -59 33 -129t80 -128.5t94 -107t80 -77t33 -27.5zM512 853q75 0 139 -46t101 -125.5t37 -173.5q0 -54 -30 -118t-66.5 -112.5
t-84 -99t-66.5 -67t-30 -26.5v0q-11 10 -30 26.5t-66.5 67t-84 99t-66.5 112.5t-30 118q0 94 37 173.5t101 125.5t139 46zM511.5 469q26.5 0 45.5 19t19 45.5t-19 45t-45.5 18.5t-45 -18.5t-18.5 -45t18.5 -45.5t45 -19z" />
    <glyph glyph-name="navigator" unicode="&#xe602;" 
d="M65 664q0 46 33 79t79 33h186q46 0 78.5 -33t32.5 -79v-242h-297q-46 0 -79 33t-33 79v130zM549 664q0 46 32.5 79t78.5 33h186q46 0 79 -33t33 -79v-130q0 -46 -33 -79t-79 -33h-297v242zM65 237q0 46 33 78.5t79 32.5h297v-242q0 -46 -32.5 -78.5t-78.5 -32.5h-186
q-46 0 -79 32.5t-33 78.5v131zM960 335l-97 -343q-2 -5 -7 -8l-1 -2q-8 -10 -18 -2l-105 90q-10 8 -1 18q2 2 6 4q1 2 3 5l85 112l-103 -95q-4 -3 -8 -4v0l-28 -106q-2 -10 -14.5 -6.5t-10.5 13.5l26 99h-124q-5 0 -9 4t-4 9v0q-6 11 9 20l379 205h0.5h0.5q6 4 12 3l3 -2
q4 -1 5 -4q2 -2 1 -6v-4v0zM921 291v0v0v0z" />
    <glyph glyph-name="lianxiren" unicode="&#xe60e;" 
d="M898 24v0q0 -14 -11 -23.5t-25 -9.5h-700q-14 0 -25 9.5t-11 23.5v0v0q0 5 0.5 13t6 31t14.5 43t29 41.5t47 33.5q30 14 52.5 17t59.5 16q33 13 56 22.5t30 12.5l6 3l-4 49l-9 3t-21 10.5t-27.5 19t-24 30t-15.5 43.5q-17 -5 -25.5 10t-10.5 36q0 2 -1.5 15t-2 22
t0.5 19.5t6 15.5t14 3q-12 74 -9 98q1 7 1 16.5t0.5 13t3 9.5t8 12t15.5 13q5 2 0.5 22.5t-2.5 25.5q6 11 46.5 12.5t41.5 1.5q43 18 93 20q99 -4 149.5 -46t56.5 -100q3 -23 -9 -98q9 2 14 -3t6 -15.5t0.5 -19.5t-2 -22t-1.5 -15q-2 -20 -10.5 -35t-25.5 -11
q-4 -24 -14 -43.5t-21 -30.5t-22 -18.5t-18 -10.5l-7 -2l-4 -49q18 -9 92 -37q37 -14 59 -17.5t53 -17.5q27 -12 47 -33.5t29 -41.5t14.5 -43t6 -31t0.5 -13v0z" />
    <glyph glyph-name="wangluo" unicode="&#xe617;" 
d="M736 778h-449l-224 -389l224 -389h449l225 389zM715 38h-406l-203 351l203 351h406l202 -351zM680 374q-21 0 -37 -13l-136 78q5 14 5 29v0v0q0 12 -3 24l95 48q16 -16 39 -16t39.5 16.5t16.5 39.5t-16.5 39.5t-40 16.5t-39.5 -16.5t-16 -39.5v-7l-95 -47q-28 35 -74 35
q-38 0 -65.5 -27t-27.5 -66q0 -30 16.5 -53.5t43.5 -33.5l-14 -82q-20 -4 -33 -19.5t-13 -36.5q0 -23 16.5 -39.5t39.5 -16.5t39.5 16.5t16.5 39.5q0 33 -29 50l14 81q40 2 67 32l136 -78q-1 -5 -1 -10q0 -23 16.5 -39.5t39.5 -16.5t39.5 16.5t16.5 39.5t-16.5 39.5
t-39.5 16.5z" />
    <glyph glyph-name="dingwei" unicode="&#xe62f;" 
d="M512 469zM422 469q0 -37 26.5 -63.5t63.5 -26.5t63.5 26.5t26.5 63.5t-26.5 63.5t-63.5 26.5t-63.5 -26.5t-26.5 -63.5zM512 -14q-29 0 -53 17q-21 15 -32 39l-172 269v0q-45 73 -45 158q0 125 88.5 213.5t213.5 88.5t213.5 -88.5t88.5 -213.5q0 -85 -45 -159h-1
l-172 -269q-10 -24 -31 -39q-24 -16 -53 -16zM309 345l176 -274l1 -3q7 -18 26 -18t26 18l1 3l175 273q36 58 36 125q0 99 -69.5 168.5t-168.5 69.5t-168.5 -69.5t-69.5 -168.5q0 -67 35 -124z" />
    <glyph glyph-name="icon-music" unicode="&#xe600;" 
d="M967 384v0q0 -93 -36 -177t-97 -145t-145 -97t-177 -36t-177 36t-145 97t-97 145t-36 177v0q0 93 36 177t97 145t145 97t177 36t177 -36t145 -97t97 -145t36 -177zM481 299q-70 54 -103 61q-56 12 -91.5 -18.5t-33.5 -81.5q1 -33 21 -57.5t48 -34.5t59 -14t54 2
q46 8 71.5 36t30.5 69l44 247v0q63 -57 80 -77q11 -15 11 -31.5t-5 -30.5l-6 -13q3 1 7.5 2t17 7.5t23.5 16.5t21.5 29t15.5 43q2 12 2 21t-1.5 16.5t-5 14t-7 11t-10.5 10.5t-12 10t-13.5 10t-14.5 11q-104 83 -136 89q-20 5 -31.5 -10.5t-11.5 -65.5q-1 -32 -7 -99.5
t-11.5 -121t-5.5 -51.5z" />
    <glyph glyph-name="parachute__easyiconnet" unicode="&#xe61e;" 
d="M0 368v-12q0 -29 7 -59v0q29 -170 156.5 -288t300.5 -134h2q5 -1 9 -1h4q3 -1 8 -1h2.5h2.5h4.5h2.5h9q2 -1 4 -1v0q5 0 12 1h1h11h3q6 1 10 1h4q3 0 7 1q171 16 297.5 132.5t157.5 284.5q4 17 7 56v0h1v0v6v2v0v1q6 72 -15 149v3q-43 168 -181 277.5t-315 109.5
q-183 0 -323 -114.5t-177 -288.5q-10 -34 -12 -94v-15v-1v-15zM1021 439q-5 37 -13 67v3q-8 30 -19 59v0l-21 -11l-27 -2l-71 1l-34 -7l-25 7l-54 -10l-12 -11l-68 25l-14 -6l-37 15l-63 -40l-20 6l-37 -29l-47 14l-82 73l-15 -8l-17 -19l-30 21l-18 -10l-44 28l-33 -11h-34
l-61 -43l-17 7l-35 -9l-54 -25q-4 -16 -7 -31q-10 -34 -12 -94v-14l18 11l38 23l22 -3l30 -26l23 -6l32 9l30 -17l55 -14l93 4l33 53l31 23l41 -35l109 51l91 -53l10 -19l23 -14l16 -19l32 28l6 24l27 8l12 21l30 7l41 -27l35 -45l52 16l59 35l23 5zM0 368v-12q0 -29 7 -59
v0q3 -18 8 -36l36 2l56 -36l70 3l31 44l15 -9l49 34l17 -14l27 10l48 -19l37 -36l48 12l16 -24l27 7l63 -28l70 35l22 2l30 14l10 16l30 14l19 4l29 -11l22 18l22 -15l50 14l21 -3l55 -44l12 9l46 -32l7 3q9 30 15 61q4 17 7 56v0h1v0v6v2v0v1q3 34 -2 82l-9 -14l-23 -5
l-59 -34l-52 -17l-35 45l-41 27l-30 -7l-12 -21l-27 -8l-6 -24l-32 -28l-16 19l-23 14l-10 19l-91 53l-109 -51l-41 35l-31 -23l-33 -53l-93 -4l-55 14l-30 17l-32 -9l-23 6l-30 26l-22 3l-38 -23l-18 -11v-2v-15zM223 265l-15 9l-31 -44l-70 -3l-56 36l-36 -2
q39 -157 162.5 -264t286.5 -122h2q5 -1 9 -1h4q3 -1 8 -1h2.5h2.5h4.5h2.5h9q2 -1 4 -1v0q5 0 12 1h1h11h3q6 1 10 1h4q3 0 7 1q154 14 274 112t166 244l-7 -3l-46 32l-12 -9l-55 44l-21 3l-50 -14l-22 15l-22 -18l-29 11l-19 -4l-30 -14l-10 -16l-30 -14l-22 -2l-70 -35
l-63 28l-27 -7l-16 24l-48 -12l-37 36l-48 19l-27 -10l-17 14zM235 718v0q15 0 28 -7q16 15 37 15q18 0 32.5 -11.5t18.5 -28.5q8 -3 16 -10t11 -15h4q17 0 29 -12t12 -29t-12 -29.5t-29 -12.5q-10 0 -20 5q-3 -13 -14 -21t-25 -8q-17 0 -29 12q-12 -12 -30 -12v0v0
q-16 0 -28 11q-12 -14 -30 -14v0v0q-17 0 -29 12q-5 -1 -11 -1v0q-20 0 -34.5 14.5t-14.5 35t14.5 34.5t34.5 14h5q2 24 20.5 41t43.5 17zM693 738q11 0 20 -4q10 10 25 10v0q12 0 22 -8t13 -19q13 -5 18 -18q1 1 3 1v0q11 0 19.5 -8.5t8.5 -20t-8.5 -20t-19.5 -8.5
q-7 0 -14 4q-5 -21 -27 -21v0q-11 0 -20 9q-8 -9 -20 -9v0v0q-11 0 -19 8q-8 -9 -21 -9v0v0q-11 0 -19 8q-4 -1 -8 -1v0q-13 0 -23 10t-10 24t10 23.5t23 9.5h3q2 17 14.5 28t29.5 11zM462.5 857q31.5 0 53.5 -22.5t22 -54t-22 -53.5t-53.5 -22t-54 22t-22.5 53.5t22.5 54
t54 22.5zM177 649q2 0 4 0.5t9 1t11 -1.5q5 0 16.5 -5.5t18.5 -5.5q10 0 10 4q-8 -2 -10 5q-2 5 2.5 9t16.5 13q19 12 14 24q-3 -4 -14 -10q-5 -2 -9.5 -6t-9.5 -9.5t-8 -8.5q-7 -6 -9 -6.5t-8 0.5q-25 5 -34 -4zM443 -123q4 22 24 51q8 12 11 18q5 7 5.5 13t-2 11.5t-4.5 9
t-7 8.5q-7 7 -9 10l-2 3v1h1q27 14 59 14h1q33 0 61 -15v0v-1l-1 -1q-3 -4 -9 -11q-5 -5 -7.5 -8.5t-5 -9t-1.5 -11.5t5 -13t12 -18q19 -27 23 -48q-18 -3 -37 -5q-3 -1 -7 -1h-4q-4 0 -10 -1h-3h-11h-1q-7 -1 -12 -1v0q-2 0 -4 1h-9h-3h-4h-2.5h-2.5q-5 0 -8 1h-4
q-4 0 -9 1h-2q-11 1 -21 2zM412 70l-118 250l-73 38l5 -69h-1zM289 332l-36 76l6 4l36 -77l17 155l77 -98l-8 91l8 1l8 -93l100 156l108 -142l-2 93h8l2 -87l56 94l43 -145l28 83l7 -3l-27 -79l70 55l11 -70l10 15l6 -5l-203 -306l-8 341l-108 142l-100 -155l26 -332
l-232 269l6 6l19 -23l-5 73zM302 322l116 -246l-27 301l-74 93zM795 337l-10 64l-70 -54l-88 -262zM707 347l-40 139l-54 -90l8 -307zM814 332q-10 36 -49 65q-21 15 -22 7q-41 45 -94.5 72.5t-114 32t-119.5 -13.5t-117 -69.5t-102 -131.5q-76 192 42 302q89 82 249 90
q151 7 261 -56q117 -68 108 -180q-4 -56 -42 -118zM564 -20l-8 2l60 85l8 -3zM474 0l-56 49l7 4l56 -50zM504 95q0 2 -4 4v0l-2 3q1 2 1.5 4t0.5 4v1l-5 9l-3 -9l-1 -2h-1v-3q-1 -2 -1 -3l-2 7l-1 -1l-2 9q-2 -1 -4 -3v5h-2l2 10q-14 -5 -26 -4q-5 0 -8.5 0.5t-4.5 1.5l-2 1
q8 -9 19 -13h-3q-5 0 -9 1t-5 2l-1 1q10 -12 23 -14l-1 -1q-5 -2 -8.5 -2.5t-5.5 0.5h-1q1 -1 3 -1.5t7.5 -2t10.5 -1.5q-2 -1 -3 -1q-5 -2 -8.5 -2.5t-5.5 -0.5h-1q1 0 3.5 -1t10 -3t13.5 0l-20 -12q14 4 25 9v-1l-13 -20q15 10 22 18q-1 -4 -2 -7q-2 -5 -3.5 -8.5
t-3.5 -3.5l-1 -1q3 1 7 3t10.5 10t5.5 18zM533 97q0 2 5 4v0l2 2q-1 3 -2 5t-1 3v1l5 10l3 -10l1 -2l1 1v-3q1 -2 1 -3l2 6h1q0 4 2 9v0q2 -1 5 -3l-1 5h2l-1 10q14 -5 25 -5q5 1 9 1.5t5 1.5l1 1q-8 -9 -19 -13h1.5h2.5q5 0 8.5 1t4.5 2h1q-10 -11 -23 -13l2 -1
q4 -2 8 -2.5t5 0.5h1q-1 -1 -3 -2t-7.5 -2.5t-10.5 -0.5q3 -1 4 -2q4 -1 8 -1.5t5 -0.5h1q-1 -1 -3.5 -2t-10 -2.5t-12.5 0.5l19 -12q-14 4 -25 9v-1l14 -21q-16 11 -23 19q1 -3 2 -8q2 -4 4 -7.5t3 -4.5h1q-3 1 -7 3t-10.5 10t-5.5 18zM591 155q-9 4 -16 -12t2 -20.5t16 12
t-2 20.5zM454 79h123q6 0 10.5 -4.5t4.5 -10.5v-46q0 -6 -4.5 -10.5t-10.5 -4.5h-123q-6 0 -10.5 4.5t-4.5 10.5v46q0 6 4.5 10.5t10.5 4.5zM542 76q0 -1 -24 -1.5t-24 -1.5q-5 -6 -9.5 -16.5t-9.5 -15t-17 -7.5q-10 -2 -2 -4q35 -7 35 -19l65 3q0 12 31 18q7 1 -3 3.5
t-14.5 11t-11.5 13.5q-10 7 -16 16zM543 121v-61q-10 -13 -24.5 -13t-24.5 13v61q0 16 12.5 22t24.5 0t12 -22zM543 121v-41q-14 -11 -24.5 -11t-24.5 11v41q0 16 12.5 22t24.5 0t12 -22zM518.5 79q-13.5 0 -33.5 18t-27 44q-9 30 7.5 59.5t53 29.5t53 -29.5t8.5 -59.5
q-8 -26 -28 -44t-33.5 -18zM447.5 155q9.5 4 16.5 -12t-2.5 -20.5t-16.5 12t2.5 20.5zM465 183q-1 -4 -1.5 -8.5t-0.5 -6v-5t0.5 -8t2 -12t4 -13t3.5 -6.5l2 -2q-4 3 -9.5 7t-13.5 18t-5 28q1 5 18 8v0zM567 177q4 -20 2 -35q-1 -7 -2.5 -11.5t-2.5 -6.5l-1 -1q3 2 7.5 5.5
t10.5 15.5t2 25q0 2 -4 4t-8 3zM446 160q21 23 52 24q49 0 75 -27q8 -8 13 -11.5t6 -3.5h1v0q2 4 3 8q1 3 4 7t2 6q-2 12 -1 16t-3 15.5t-13 20.5q-3 3 -10.5 11.5t-12.5 13.5t-15.5 10.5t-23.5 6.5t-20.5 0t-10 -2.5t-4.5 -3.5t-4 -2q-1 0 -6 -1t-7 -2t-6.5 -4t-8.5 -8.5
t-8 -13.5q-3 -6 -3.5 -11t-0.5 -10t-1 -7q0 -5 -2.5 -10.5t-2.5 -6.5q0 -5 8 -15zM480 -28v1q-3 5 -11 14q-6 6 -9 10q-4 6 -5 15q-4 -2 -10 -6l-1 -1v2q0 47 36 58v0q0 -1 -1 -2q-1 -2 0 -4q8 -9 38 -9h2h7.5h10.5t10 1t8.5 3t1.5 6q21 -6 29.5 -18.5t8.5 -34.5v-2l-2 1
q-5 4 -9 6q-1 -9 -6 -15q-2 -4 -8 -10q-9 -9 -11 -14l-1 -1q-38 -46 -78 0zM542 172q22 1 28 -24q3 -12 -3 -19t-20 -7q-14 -1 -24 16q0 1 -1 1q-2 4 -3.5 4t-3.5 -4v-1q-10 -17 -24 -17q-13 0 -20 6.5t-4 18.5q5 25 27 26h48zM542 172q22 1 28 -24q3 -12 -3 -19t-20 -7
q-14 -1 -24 16q0 1 -1 1q-2 4 -3.5 4t-3.5 -4v-1q-10 -17 -24 -17q-13 0 -20 6.5t-4 18.5q5 25 27 26h48zM542 175l-48 -1q-25 0 -30 -27q-3 -14 4.5 -21.5t22.5 -7.5q10 0 17 7q4 4 9 12l0.5 0.5l0.5 0.5q0 1 1 2q0 -1 1 -2v-0.5t1 -0.5q4 -8 10 -12q7 -6 16 -6q15 0 22 8
t4 21q-6 27 -31 27zM568.5 147.5q-5.5 23.5 -26.5 22.5h-24h-24q-20 -1 -25 -24q-2 -13 4.5 -18t17.5 -5q12 0 21 16q4 6 7 6t6 -6q10 -16 22 -15q27 0 21.5 23.5zM464 146q2 9 5 14l-16 4q-5 1 -6 -4l-4 -14v-1v-2q1 -2 3 -2l18 -4q-1 4 0 9zM573 148q-2 9 -5 14l14 4
q5 1 6 -4l4 -14q1 0 1 -1t-1 -2q-1 -2 -3 -2l-15 -4q0 4 -1 9zM446 46q4 5 9 9q4 3 9 6l2 1l12 3q0 -25 -2 -33q-3 -11 -13 -17v0q-3 -3 -6 -7q-7 -8 -12.5 -19t-10.5 -14.5t-17 -2.5q-25 2 -50 24q-5 9 0 16.5t14 5.5l8 -4q17 -10 23 -11.5t7.5 2.5t8 16.5t18.5 24.5z
M504 64q-5 -7 -7 -13q-1 -8 -1 -19.5t1 -19.5v-8q-20 -1 -24 8q-1 1 -4.5 -0.5t-5.5 -4.5l4 36q2 11 5 15q1 2 6 6.5t7 4.5zM494 85q-1 -7 3 -7q6 -3 22 -3q19 0 24 4v5l6 -3q-2 -9 1 -12l2 -2q3 -1 -2 -4q-10 -6 -32 -6q-17 0 -30 5q-10 5 -6 8q2 1 6 7q1 1 -0.5 3t0.5 3z
M529 111q-5 -18 -11 -18q-2 0 -5 4.5t-4 8.5l-1 5q4 2 10 2q11 0 11 -2zM379 18q4 -4 4 -10v0v0q0 -12 -11 -16q-2 2 -5 4q-5 9 -0.5 16t12.5 6zM368 -6l58 59l-6 6l-57 -60zM369 22q3 3 10.5 -5t4 -10.5t-10.5 5t-4 10.5zM364.5 19q3.5 3 10.5 -5t4 -10.5t-10.5 5t-4 10.5z
M361 16.5q3 2.5 10.5 -5t4 -10.5t-10.5 5t-4 10.5zM357 13q3 3 10.5 -5t4 -10.5t-10.5 5t-4 10.5zM590 40q-4 6 -9 10q-4 3 -9 6l-2 1l-13 3q0 -25 3 -33q1 -5 4.5 -9t6.5 -6l2 -2q1 -1 3.5 -4l2.5 -3q7 -8 12.5 -19t10.5 -14.5t17 -2.5q25 1 50 23q5 10 0 17.5t-14 5.5
l-8 -4q-17 -11 -23 -12t-8 3t-8 16.5t-18 23.5zM657 13q-4 -4 -4 -11v0q0 -12 11 -15q2 1 5 3q5 9 0.5 16.5t-12.5 6.5zM675 -16l-63 67l5 5l63 -67zM667 17q-3 3 -10.5 -5t-4.5 -11t10.5 5t4.5 11zM671.5 14q-3.5 3 -10.5 -5t-4 -11t10.5 5t4 11zM675 11q-3 3 -10.5 -5
t-4 -10.5t10.5 5t4 10.5zM678.5 8q-3.5 3 -10.5 -5t-4 -11t10.5 5t4 11zM459 79h10v-92l-8 8zM580 79h-11v-93l8 9zM855 437q-12 -5 -25 -5v0q-29 0 -49 21t-20 50q0 25 16.5 44.5t40.5 24.5q48 -59 37 -135zM179 373q31 0 52 -24q-19 -26 -35 -55q-16 41 -23 79h6zM207 560
q34 -21 34 -61q0 -29 -20 -49.5t-48 -20.5h-6q0 74 40 131zM340 518q36 0 56 -30q-62 -26 -114 -78q-11 18 -11 38q0 29 20 49.5t49 20.5zM524 518q22 0 39 -13q-27 5 -54 5q-9 0 -18 -1q15 9 33 9v0zM455.5 664q28.5 0 48.5 -20.5t20 -49.5t-20 -49.5t-48.5 -20.5
t-48.5 20.5t-20 49.5t20 49.5t48.5 20.5zM349 660q-1 -27 -21 -46.5t-47 -19.5v0q-18 0 -34 9q42 36 102 57zM671 663q-4 -25 -23 -42t-45 -17q-28 0 -48 20.5t-20 49.5q0 6 1 12q71 -3 135 -23zM652 532q28 0 48 -20.5t20 -49.5q0 -16 -6 -30q-54 47 -121 66q20 34 59 34z
M597 770q2 0 4 0.5t9 1t11 -1.5q5 -1 16.5 -6t18.5 -6q11 0 10 4q-8 -1 -10 6q-2 5 2.5 8.5t17.5 12.5q18 13 13 25q-3 -4 -13 -10q-5 -2 -10 -6t-10 -9.5t-8 -8.5q-7 -6 -9 -7t-8 1q-25 5 -34 -4z" />
    <glyph glyph-name="qunzu" unicode="&#xe61a;" 
d="M341 408q-47 21 -75.5 65t-28.5 98q0 75 52.5 127.5t127 52.5t127 -52.5t52.5 -127.5q0 -54 -28 -97.5t-76 -65.5q117 -25 195 -116.5t84 -212.5l-708 -1q7 120 85 212t193 118zM566 730q67 -65 67 -158q0 -86 -58 -149v0q85 -37 144.5 -108t80.5 -162v0l160 1
q-5 107 -74.5 188.5t-173.5 103.5q42 19 67.5 58t25.5 87q0 67 -47 113.5t-113 46.5q-43 0 -81 -22z" />
    <glyph glyph-name="icon-test" unicode="&#xe68b;" 
d="M589 591q-6 33 -21 62l39 61l-69 62l-56 -39q-28 13 -58 18v0l-21 77l-79 -15l-17 -80v0q-26 -12 -47 -30l-64 30l-36 -52l36 -62v0q-13 -28 -18 -59v0l-67 -9v-72l75 -24v0q8 -23 21 -44v0l-47 -57l57 -52l57 43v0q6 -4 12 -7q10 -5 21 -8l31 -91h72l14 86q26 6 50 20
l58 -36l47 49l-30 53q11 16 19 33q7 13 11 26l73 30v64zM335.5 437q-38.5 15 -53 59t4 91.5t59 70.5t79 8t52.5 -59t-4.5 -91.5t-58.5 -70.5t-78.5 -8zM850 246q-10 24 -27 44l20 53l-63 35l-37 -39q-23 6 -47 4v0l-29 56l-58 -25v-65h1q-18 -13 -31 -30l-54 11l-19 -45
l38 -42v1q-5 -24 -4 -49l-50 -19l12 -54l62 -6v0q10 -16 23 -30l-26 -52l53 -30l36 43q6 -2 11 -3q7 -2 17 -3l40 -65l54 12l-4 69v0q19 9 35 23v0l51 -17l28 46l-33 35q6 14 10 29q2 9 4 21l50 35l-11 49zM682 84q-32 5 -50.5 36.5t-12.5 71t33 64t59.5 19.5t50.5 -36.5
t12 -71t-33 -64t-59 -19.5z" />
    <glyph glyph-name="icon-test1" unicode="&#xe69d;" 
d="M914 567q-36 39 -257 53q-29 117 -46 132q-19 15 -150 4t-146 -27q-17 -17 -54 -116q-132 -16 -154 -46q-28 -39 -38.5 -164t0.5 -240.5t38 -129.5q27 -15 214.5 -22.5t377 1.5t214.5 34q27 27 40 139.5t3 229t-42 152.5zM624.5 137q-79.5 -36 -159 -10t-112.5 98.5
t0 149.5t112.5 113t159 10t112.5 -99t0 -149.5t-112.5 -112.5zM484.5 408.5q-43.5 -27.5 -56.5 -75t12 -87.5t73.5 -48.5t92 19t56.5 75t-12 87t-73.5 48.5t-92 -18.5z" />
    <glyph glyph-name="icon-test2" unicode="&#xe6a7;" 
d="M746 759q-80 52 -184.5 37t-210.5 -80.5t-183 -158.5q-4 -5 -10.5 -13.5t-20 -33t-21 -47t-6.5 -50.5t18 -48q28 -32 104 -18q8 2 19.5 4t40 -1.5t49 -17.5t33 -52t3.5 -97q0 -5 -1 -13.5t-2 -32.5t0.5 -44t9 -42.5t19.5 -34.5q84 -81 205 -22q82 40 145.5 100
t101.5 127.5t52 143t2 145.5t-53.5 135.5t-109.5 113.5zM359 453q-24 -29 -57 -35.5t-56 12.5t-22 53t25 62.5t57 35.5t56 -12t22 -53t-25 -63zM466.5 651.5q26.5 32.5 63.5 40t62.5 -14t24.5 -59t-28 -69.5t-63.5 -39.5t-62 13.5t-24.5 58.5t27.5 70zM624 168
q-27 -32 -63.5 -39.5t-62 13.5t-24.5 59t27.5 70t63.5 39.5t62.5 -13.5t24.5 -59t-28 -70zM674 468.5q-23 19.5 -22 53t25 62.5t57 36t56 -12t22 -53t-25 -63t-57 -36t-56 12.5zM740 303q-18 15 -17.5 41.5t19.5 49t45 27.5t43.5 -9.5t17 -41t-19.5 -49t-44.5 -28t-43.5 9.5
z" />
    <glyph glyph-name="icon-test3" unicode="&#xe6b8;" 
d="M890 514q-13 2 -28 -2t-24 -10l-8 -5v-0.5v-0.5q1 37 0 87q-1 39 -58 77t-142.5 60.5t-167.5 22.5q-83 0 -176 -24t-157.5 -63.5t-64.5 -79.5v-18t2 -46t6.5 -69t14 -81t22.5 -88t35 -83.5t49.5 -74t66.5 -54t86 -28.5q9 -2 26.5 -5t71.5 -3.5t109 8.5q68 10 125 68.5
t95 134.5v0q41 7 73 20.5t50.5 28.5t33 32.5t19 33t8.5 29t2.5 20.5t0.5 7v0q2 47 -20 74t-50 32zM455 404q-231 -4 -324 86q-18 17 -25 30q27 34 74 58.5t95 35.5t91.5 16.5t71.5 5.5h28q69 0 128.5 -12t94.5 -29t60.5 -34t34.5 -29l10 -12q-29 -38 -75.5 -63.5
t-87.5 -35.5t-87 -14t-62.5 -3.5t-26.5 0.5v0zM885 359q-1 -1 -2 -4t-7.5 -11t-15 -15t-24.5 -15t-36 -14q19 57 26 136v0l7.5 5t16 6t18.5 1q11 -3 19.5 -12.5t11.5 -29t-14 -47.5z" />
    <glyph glyph-name="icon-test4" unicode="&#xe6ba;" 
d="M890 673q-44 82 -132 123.5t-196.5 35t-211.5 -62.5q-77 -41 -134 -102.5t-86 -129t-29 -139t33 -132.5q51 -96 162 -136q-15 -129 0 -146q13 -12 50.5 -11t52.5 11q16 9 21 123q21 -1 41 1q-10 -146 2 -165q11 -15 68 0t66 34q10 19 -2 158q13 4 23 9q11 -126 22 -137
q11 -10 60.5 11.5t56.5 41.5q7 21 -31 142q130 90 177 223.5t-13 247.5zM334.5 377q9.5 53 41.5 86t68 26q41 -7 59 -59l1 11q12 65 51 105t83 32.5t67 -59t11.5 -116.5t-50.5 -105.5t-83 -32.5q-27 4 -46.5 26t-28.5 55v0q-10 -53 -42 -86t-68 -26.5t-54.5 48.5t-9 95z" />
    <glyph glyph-name="icon-test5" unicode="&#xe6cb;" 
d="M860 771q-22 21 -134.5 26t-239 -4t-236.5 -29t-128 -44q-24 -30 -25.5 -201t15.5 -336t40 -183q23 -17 198 -26.5t351.5 -2.5t200.5 29q24 23 26 201.5t-18 360t-50 209.5zM768 299q-31 -56 -87 -76.5t-105 6.5q-41 23 -57 71q-36 -55 -94.5 -73.5t-109.5 9.5
q-54 30 -68 95.5t20.5 127.5t97 85.5t116.5 -6.5q51 -28 67 -88q33 44 83.5 58.5t94.5 -9.5q48 -27 60.5 -85.5t-18.5 -114.5z" />
    <glyph glyph-name="icon-test6" unicode="&#xe6d8;" 
d="M96 438l52 -64q3 4 7.5 9.5t18 18.5t26 22t28 13.5t27 -1.5t20 -28t9.5 -61q0 -6 1 -16t5.5 -39.5t11 -56t20.5 -59t32 -56t46 -39.5t62 -16q5 -1 13 -1t33.5 3t52 11.5t65.5 30t75.5 53t80 85t81.5 121.5q3 5 8 14t17 35.5t21 52t15 58.5t3 60.5t-18.5 53t-45.5 40.5
q-4 3 -12 7t-33.5 7.5t-53 -2.5t-69.5 -32.5t-85 -73.5q6 1 14.5 0.5t27 -7.5t26 -20.5t-1 -45.5t-40.5 -77q-4 -4 -10 -10.5t-24 -22t-34.5 -25t-37.5 -12t-37 8.5t-29 45.5t-18 91.5v7t-1 21t-3 29.5t-5.5 33.5t-10 34t-15.5 31t-22 23t-30 10.5t-39 -5.5q-2 0 -13.5 -4.5
t-36.5 -21t-51.5 -42.5t-60 -76.5t-62.5 -115.5z" />
    <glyph glyph-name="icon-test7" unicode="&#xe6e5;" 
d="M506 246q8 -5 227.5 54.5t226.5 69.5q8 16 -147 192l-390 -111l4 -11t10.5 -28.5t14.5 -39.5t16.5 -43.5t16 -40t13.5 -30t8 -12.5zM64 525q0 -9 113.5 -118.5t124.5 -109.5q7 0 37 38.5t57 77l27 38.5l-240 199q-119 -114 -119 -125zM605 755l-34 -179l-23 188
q-336 -86 -336 -97q0 -9 103.5 -93t117.5 -86q15 -2 183 46.5t171 56.5q2 6 -43.5 47t-91.5 79t-47 38zM415 378q-87 -126 -105 -128q-8 0 -42.5 32t-65.5 63.5t-31 32.5q-4 -136 0 -147q3 -11 118 -117.5t134.5 -109.5t211.5 56t198 65q3 3 8.5 49t9.5 89t4 45l-307 -88
q-57 -14 -60 -13q-6 2 -24 45t-33.5 84t-15.5 42z" />
    <glyph glyph-name="icon-test8" unicode="&#xe6e8;" 
d="M64 434q3 -4 7.5 -11t18 -23t25.5 -27.5t27 -17.5t26 0.5t19 32.5t9 72q0 55 20 95.5t50 60.5t66.5 22.5t69.5 -12t59.5 -49t37.5 -83.5q1 6 4 17t15.5 38.5t29.5 49t48 39t69 17.5q32 0 58.5 -20t42.5 -48.5t27 -57t15 -47.5l5 -20q1 -5 2.5 -12t8.5 -26t14.5 -34.5
t20.5 -29.5t27 -18t33.5 6t40.5 37q-2 -1 0 -12.5t-2.5 -32.5t-9 -45.5t-19.5 -52t-34.5 -51.5t-53 -44t-76 -29.5t-80 0.5t-64 32.5t-48 52.5t-35 61.5t-23 58.5t-13 44l-3.5 17q-1 -5 -3.5 -13.5t-12 -33.5t-20.5 -47.5t-30.5 -50.5t-42 -48t-54.5 -33.5t-68 -13.5
q-49 0 -87.5 25t-59.5 60t-35 78t-18 74t-4 53z" />
    <glyph glyph-name="sheep" unicode="&#xe725;" 
d="M25 330v0q19 -25 65.5 -16.5t93 44.5t66.5 79t1 67v0q-19 25 -65.5 16.5t-93.5 -44.5t-66.5 -79t-0.5 -67zM70 302q-36 0 -53 22q-22 28 -2 74.5t71 85.5q49 38 98 46q52 10 75 -19.5t0 -77.5q-21 -45 -69 -83q-63 -48 -120 -48zM206 512q-8 0 -19 -1q-44 -8 -89 -43
t-63 -75q-18 -37 -2.5 -57t55.5 -13q44 8 89 43t64 75q17 37 2 57q-11 14 -37 14zM245 512l12 -16l-226 -174l-12 16zM1000 330v0q19 24 -1 67t-67 79t-93.5 44.5t-64.5 -16.5v0v0q-19 -24 0.5 -67t66.5 -79t93.5 -44.5t65.5 16.5v0zM955 302q-57 0 -120 48q-49 38 -70 83
q-22 48 0.5 77.5t75.5 19.5q48 -8 97 -46q51 -39 71 -85.5t-1 -74.5q-17 -22 -53 -22zM819 512q-26 0 -37 -14q-16 -20 2 -57q19 -41 63.5 -75.5t88.5 -42.5q41 -7 56 13t-2 57q-19 41 -63.5 75.5t-89.5 42.5q-9 1 -18 1zM780 512l226 -174l-12 -16l-226 174zM512.5 -68
q-129.5 0 -222 92t-92.5 222v114q0 130 92.5 222t222 92t221.5 -92t92 -222v-114q0 -130 -92 -222t-221.5 -92zM512.5 -78q-65.5 0 -126.5 25q-58 25 -102.5 70t-69.5 103q-26 60 -26 126v114q0 66 26 126q25 58 69.5 103t102.5 70q61 25 126.5 25t125.5 -25q58 -25 103 -70
t70 -103q25 -60 25 -126v-114q0 -66 -25 -126q-25 -58 -70 -103t-103 -70q-60 -25 -125.5 -25zM512.5 664q-125.5 0 -215 -89t-89.5 -215v-114q0 -126 89.5 -215t215 -89t214.5 89t89 215v114q0 126 -89 215t-214.5 89zM858 630q-23 0 -42 -13v20q0 36 -25.5 61.5
t-61.5 25.5t-61.5 -25.5t-25.5 -61.5v69q0 53 -37.5 90.5t-90 37.5t-90 -37.5t-37.5 -90.5v-69q0 36 -25.5 61.5t-61 25.5t-61 -25.5t-25.5 -61.5v-23q-21 16 -47 16q-31 0 -53 -22t-22 -52v-7q0 -31 22 -53t53 -22q26 0 47 17v-24q0 -36 25.5 -61.5t61 -25.5t61 25.5
t25.5 61.5v-69q0 -53 37.5 -90.5t90 -37.5t90 37.5t37.5 90.5v69q0 -36 25.5 -61.5t61.5 -25.5t61.5 25.5t25.5 61.5v20q19 -13 42 -13q31 0 53 22t22 53v7q0 30 -22 52t-53 22zM515 260q-57 0 -97.5 40.5t-40.5 97.5v10q-29 -38 -77 -38q-40 0 -68 28.5t-28 68.5v5
q-18 -8 -37 -8q-35 0 -60 25t-25 60v6q0 36 25 60.5t60 24.5q19 0 37 -8v5q0 40 28 68.5t68 28.5q48 0 77 -38v10q0 57 40.5 97.5t97.5 40.5t97 -40.5t40 -97.5v-10q29 38 77 38q40 0 68.5 -28.5t28.5 -68.5v-3q15 6 32 6q35 0 60 -24.5t25 -60.5v-6q0 -35 -25 -60t-60 -25
q-17 0 -32 6v-3q0 -40 -28.5 -68.5t-68.5 -28.5q-48 0 -77 38v-10q0 -57 -40 -97.5t-97 -40.5zM397 467v-69q0 -49 34.5 -83.5t83 -34.5t83 34.5t34.5 83.5v69q0 10 10 10t10 -10q0 -32 22.5 -54.5t54.5 -22.5t54.5 22.5t22.5 54.5v20q0 6 5 9t10 -1q17 -11 37 -11
q27 0 46 19t19 46v6q0 27 -19 46t-46 19q-20 0 -37 -11q-5 -3 -10 -0.5t-5 8.5v20q0 32 -22.5 54.5t-54.5 22.5t-54.5 -22.5t-22.5 -54.5q0 -10 -10 -10t-10 10v69q0 49 -34.5 83.5t-83 34.5t-83 -34.5t-34.5 -83.5v-69q0 -10 -10 -10t-10 10q0 32 -22.5 54.5t-54 22.5
t-54 -22.5t-22.5 -54.5v-24q0 -6 -6 -8.5t-11 1.5q-18 14 -40 14q-27 0 -46 -19t-19 -46v-6q0 -27 19 -46t46 -19q22 0 40 15q5 4 11 1t6 -9v-24q0 -32 22.5 -54.5t54 -22.5t54 22.5t22.5 54.5q0 10 10 10q4 0 7 -3t3 -7zM362 211zM312 211q0 -21 14.5 -35.5t35.5 -14.5
t35.5 14.5t14.5 35.5t-14.5 35.5t-35.5 14.5t-35.5 -14.5t-14.5 -35.5zM351 226zM331 225.5q0 -8.5 6 -14t14 -5.5t14 5.5t6 14t-6 14.5t-14 6t-14 -6t-6 -14.5zM371 185zM361 185.5q0 -4.5 3 -7.5t7.5 -3t7.5 3t3 7.5t-3 7.5t-7.5 3t-7.5 -3t-3 -7.5zM316 214
q-16 0 -27 7.5t-11 19.5q0 10 10 10t10 -10q0 -1 2 -2.5t6.5 -3t9.5 -1.5q10 0 10 -10t-10 -10zM663 211zM613 210.5q0 -20.5 14.5 -35t35 -14.5t35.5 14.5t15 35t-15 35.5t-35.5 15t-35 -15t-14.5 -35.5zM674 226zM654 225.5q0 -8.5 5.5 -14t14 -5.5t14.5 5.5t6 14t-6 14.5
t-14.5 6t-14 -6t-5.5 -14.5zM654 185zM643 185.5q0 -4.5 3 -7.5t7.5 -3t7.5 3t3 7.5t-3 7.5t-7.5 3t-7.5 -3t-3 -7.5zM708 214q-10 0 -10 10t10 10q6 0 10 1.5t6 3t2 2.5q0 10 10 10t10 -10q0 -12 -11 -19.5t-27 -7.5zM462 100.5q0 -15.5 14.5 -26t35.5 -10.5t36 10.5t15 26
t-15 26.5t-36 11t-35.5 -11t-14.5 -26.5zM512 28q-10 0 -10 10v26q0 10 10 10t10 -10v-26q0 -10 -10 -10z" />
    <glyph glyph-name="xiaoer" unicode="&#xe61d;" horiz-adv-x="1143" 
d="M213 12q83 -6 123 23q65 41 25 116q-30 58 -96 95q-71 40 -111 13l-6 3t-14 4t-19 1t-18 -9t-13 -23q-2 1 -5.5 3t-12.5 4t-16.5 0.5t-15 -9t-10.5 -22.5q-4 -19 2.5 -31.5t17 -20t25 -26.5t22.5 -47q10 -23 29 -39t38.5 -22.5t33 -9.5t21.5 -3zM247 -1q-12 0 -34 1
q-7 0 -20 2.5t-35 9.5t-43.5 25t-33.5 44v1q-12 38 -44 68q-7 6 -9.5 8.5t-8 10t-5.5 12t-2.5 14.5t1.5 18q6 29 26 37q15 7 38 0q9 18 25 24q21 9 51 -2q41 22 106 -10q48 -24 86 -68.5t40 -88.5q3 -50 -44 -79q-35 -27 -94 -27zM102 90q8 -18 22.5 -31t28 -19.5
t28.5 -10.5t22 -4.5t10 -0.5h1q78 -8 115 20q1 0 1 1q36 22 33 59q-1 37 -35.5 76t-77.5 61q-58 29 -89 9q-5 -3 -11 0q-23 11 -39 4q-10 -4 -16 -22q-1 -4 -7 -7q-4 -2 -10 0q-16 11 -30 5q-9 -5 -12 -21q-4 -16 0 -23.5t17 -19.5q36 -32 49 -76zM150 261q39 -22 75 -69z
M225 180q-6 0 -9 5q-35 44 -72 66q-10 6 -5 15q6 10 15 5q39 -23 79 -72q7 -8 -2 -16q-2 -3 -6 -3zM79 239q-5 1 0 -2l47 -34q29 -24 42 -47zM168 144q-7 0 -10 6q-18 32 -78 72l-2 2q-6 4 -8 6t-4.5 6t0.5 8q5 9 17 5q5 -2 7 -6q1 -2 3 -2q65 -42 85 -80q5 -9 -4 -15
q-5 -2 -6 -2zM587 701q5 3 12.5 12.5t15.5 18t29.5 14t52.5 2.5q23 -2 80 -12.5t89.5 -9t59.5 18.5q27 18 -32 25q-90 10 -222 -3q-14 -1 -24 -3q-22 -3 -36.5 -10.5t-20 -16.5t-7 -17t0 -13.5t2.5 -5.5zM587 692q-11 0 -13 18q0 6 1.5 13t7.5 18t22 20t41 12q23 4 84 7.5
t133.5 0t79.5 -20.5q5 -12 -12 -23q-22 -14 -51.5 -17.5t-51 -1t-61.5 9.5q-56 9 -71 10q-28 3 -48 -2.5t-26.5 -11t-14.5 -16.5q-9 -12 -15 -16h-5zM625 749q-21 -8 -28 -21q-2 -3 -2 -4q12 16 30 25zM680 758h9h9q17 -2 73 -11q39 -7 58.5 -9t46 0.5t45.5 14.5
q1 0 1.5 0.5t0.5 1.5q-18 7 -93.5 8.5t-149.5 -5.5zM608 743q5 1 17.5 9.5t24 15t30 3.5t38.5 -19q15 -14 38 -39t37 -39t36 -22.5t46 -1.5q45 13 -44 72q-75 50 -136 69q-19 6 -33.5 3.5t-25 -10.5t-17 -17t-9.5 -16t-2 -8zM852 637q-19 0 -38 10.5t-30 21t-31 32.5
q-34 37 -42 43q-17 15 -33 17t-24.5 -2t-22.5 -14q-17 -11 -22 -11l-4 -1l-3 1q-8 5 -1 21q11 24 36 40t60 5q25 -8 70.5 -31t87.5 -54.5t42 -52.5q0 -16 -22 -22q-9 -3 -23 -3zM672 781q25 0 52 -23q20 -18 43 -44q22 -25 34 -35.5t31 -18t40 -1.5q8 1 8 5q0 17 -70 60
t-118 59q-26 8 -46 -4q-6 -3 -11 -8q20 10 37 10zM454 747l4 3.5t12 8.5t19 10t30 8.5t40 4.5q26 0 44 -5.5t25 -13t17 -15.5t20 -11q-5 13 2 24t18 18.5t18.5 18t4.5 23.5q-12 46 -81 63q-31 7 -78 -1.5t-70 -29.5q-15 -13 -22 -40t-5.5 -44t2.5 -22zM681 722l-18 6
q-14 4 -31 19q-9 9 -15 13t-21 8t-37 4q-58 -1 -95 -29q-8 -6 -13 -5q-7 2 -7 9q-4 20 1.5 56.5t27.5 56.5q26 23 75 31.5t81 1.5q74 -18 89 -69q3 -11 -1.5 -21.5t-9 -15.5t-14.5 -13q-14 -11 -18 -18t0 -16zM563 791q23 0 40.5 -5t24.5 -10t17 -15q6 -6 10 -8q2 15 26 35
q12 10 16.5 16.5t2.5 13.5q-11 42 -75 56q-29 7 -73.5 -1t-66.5 -28q-26 -22 -24 -82q37 26 99 27q1 1 3 1zM452 741q2 1 9.5 3.5l13.5 4.5t19 5t29 4q85 3 136 -21q4 0 -2 12t-23.5 24.5t-40.5 14.5q-42 3 -50.5 2t-40.5 -9q-18 -4 -30.5 -14t-17 -18t-2.5 -8zM658 727
l-3 1q-46 22 -132 21q-31 -4 -60 -14q-3 -2 -8 -3l-2 -1l-10 2l-1 8q0 10 16 26.5t41 22.5l11 3q24 6 35.5 6.5t48.5 -2.5q33 -2 54.5 -23t21.5 -36q0 -10 -10 -11h-2zM542 768q58 0 100 -14q-19 22 -50 25q-35 2 -45 1.5t-33 -6.5l-10 -3q-13 -3 -26 -11q15 4 43 7h1
q3 0 10 0.5t10 0.5zM648 773q0 2 3 5t7 8t7 8q11 19 35 27q0 1 -3 1t-8 -0.5t-10 -1.5t-10.5 -3t-8.5 -5l-6 -4q-4 -3 -6 -8q0 -1 -1 -2q-5 -12 1 -25zM629 804q3 10 14 27q10 14 33 23l-15 3q-13 0 -19 -6q-11 -10 -15 -19q-2 -5 -1.5 -11t2 -11.5zM505 842q-1 -1 -2.5 -4
l-3.5 -7t-3 -10q-7 -17 3 -33h-5.5t-9 4t-4.5 10q0 10 6 25q2 5 6.5 8.5t8 5t4.5 1.5zM932 359q0 -100 -51 -184.5t-139 -134t-192 -49.5t-192.5 49.5t-139.5 134t-51 184.5t51 185t139.5 134t192.5 49q103 0 191.5 -49.5t139.5 -134t51 -184.5zM549 -20q-107 0 -197.5 50.5
t-143.5 138t-53 190.5t52.5 190t143.5 138t198 51t197.5 -50.5t143.5 -138t53 -190.5t-53 -190.5t-143.5 -138t-197.5 -50.5zM549 716q-101 0 -186.5 -48t-135.5 -130t-50 -179t49.5 -179t135.5 -129.5t187 -47.5t186.5 47.5t135.5 129.5t50 179t-49.5 179t-135.5 130
t-187 48zM195 491q1 0 15.5 10t41 24t72 27t108 18t148.5 -4q80 -8 145 -25t101 -35.5t60 -35.5t33.5 -27.5t10.5 -10.5q4 0 -4 34.5t-24.5 80t-34.5 69.5q-31 41 -61.5 64.5t-80.5 41.5q-77 26 -196 24q-136 -1 -219 -72q-27 -24 -56.5 -68.5t-45.5 -78.5t-13 -36zM929 422
q-4 0 -12 8q-97 102 -338 126q-240 25 -369 -67q-13 -9 -18 -6q-5 2 -6 8q-2 16 39 86t79 103q87 75 225 75q119 2 199 -25q52 -18 83.5 -42.5t63.5 -66.5q23 -31 48 -110l2 -6t4 -13.5t4.5 -18t4 -18.5t2.5 -16t-1 -10l-2 -5l-6 -2h-2zM483 580q50 0 98 -5
q233 -25 337 -120q-23 107 -58 154q-31 40 -60 63t-78 39q-73 25 -193 25q-133 -2 -213 -71q-29 -24 -58 -69.5t-45 -82.5q104 67 270 67zM211 513q8 6 23 13t47.5 19.5t71 20t93.5 12.5t116 -2q143 -13 231.5 -48t132.5 -77q3 0 -6.5 14.5t-30 37t-46.5 45.5t-62 42t-71 25
q-67 11 -111 15.5t-96 4t-105 -8.5q-31 -6 -62 -19.5t-53 -29t-39.5 -30t-26 -24.5t-6.5 -10zM315 620q2 0 4 3.5t9.5 11.5t19.5 18q36 26 67 30l-23 3q-23 0 -37 -7q-21 -13 -28 -24q0 -2 -2.5 -7l-4.5 -9t-4 -9t-2 -7t1 -3zM830 558q2 20 -6 58q-5 18 -11 29t-14 20.5
t-11 14.5q0 1 11.5 -7.5t30.5 -27t33 -38.5t29.5 -58.5t24.5 -66.5l9 -28q-85 102 -96 104zM689 600q1 1 2.5 6.5t3 13t2.5 18.5q4 31 -12 67q0 2 6.5 -0.5t13 -11t7.5 -20.5q3 -25 -2 -48q-1 -9 -6.5 -15.5t-10 -8.5t-4.5 -1zM260 387q-4 0 -8 2q-13 8 -5 20q5 7 11 15
t27.5 23t44.5 19q51 9 106 -34q11 -10 2 -20q-10 -12 -20 -3q-44 35 -82 28q-18 -3 -33.5 -13.5t-22.5 -19.5l-7 -10q-5 -7 -13 -7zM642 430q-4 0 -8 2q-13 8 -5 20q5 7 11 14.5t27.5 22.5t44.5 19q51 9 106 -33q11 -10 2 -21q-10 -11 -20 -2q-44 35 -82 28
q-18 -3 -33.5 -13.5t-22.5 -20.5l-7 -9q-5 -7 -13 -7zM545 116q-122 0 -216 40.5t-142 119.5q34 -118 133 -194t225 -76t225 76t133 194q-47 -80 -141.5 -120t-216.5 -40zM559 89q-54 -6 -98.5 2.5t-73 26t-50 41.5t-32 46.5t-17.5 45t-8 32.5t-1 13q4 -1 12.5 -3.5t37 -7
t58.5 -6.5t76.5 -0.5t93.5 8.5t89.5 19t70 24t48.5 23t30 18l9 7v-1q2 -2 0.5 -14.5t-1.5 -31.5t-7.5 -43.5t-16 -49.5t-28 -49.5t-44 -45t-63 -35t-85.5 -19.5zM517 75q-101 0 -166 55q-22 18 -38.5 42t-24.5 43.5t-13 39t-6.5 29t-1.5 12.5q0 6 5 9.5t10 2.5h1
q119 -32 273 -8q46 7 87.5 18.5t68 23t47.5 23t29.5 17t9.5 6.5q7 6 13 1q5 -3 5 -10v0q1 -14 0 -30t-6 -45t-14.5 -54.5t-28.5 -55.5t-45.5 -52.5t-68 -39.5t-93.5 -23q-19 -4 -43 -4zM292 281q16 -86 74 -134q70 -60 192 -48q58 7 103 30t69 51t39 64t19.5 62t5.5 51
q-93 -59 -235 -80q-145 -23 -267 4zM283 294q50 -10 105.5 -10.5t103 5t97 16.5t84 21.5t67.5 22.5t43.5 16.5t16.5 7.5v0q-6 -49 -8 -56q-1 -2 -9.5 -9t-28.5 -17.5t-47 -21.5t-70.5 -21.5t-92.5 -17.5q-52 -8 -92.5 -7t-67 5t-45.5 12t-27 13t-11 9q-23 31 -18 32z
M505 105q-105 0 -166 54q-20 17 -34.5 39t-21.5 39.5t-11 36t-5 26t-1 11.5q0 6 4 9q5 4 11 2l1 -1q118 -31 273 -8q45 7 87 19t68 23t47.5 22.5t29.5 17t10 7.5q6 5 12 1q7 -4 6 -11v-1q0 -13 -1.5 -28t-7 -42t-15.5 -51.5t-30 -53t-47 -49.5t-69 -38t-94 -22
q-24 -2 -46 -2zM290 296q13 -76 64 -120q69 -60 195 -47q12 2 25.5 4t37.5 9.5t46 18t46 29.5t42 43t30.5 60t14.5 78q-91 -58 -234 -79q-146 -23 -267 4zM550 203q-83 -8 -128 -23.5t-48 -27.5l-4 -11q2 -2 4.5 -4t12.5 -7t21 -10t28.5 -9.5t36.5 -7t44.5 -2t51.5 5.5
q36 6 66.5 17t48.5 22t30.5 21.5t17.5 16.5l4 7q0 3 -7 7t-48.5 9.5t-130.5 -4.5zM915 213q-29 13 -101 21t-81 4q-1 0 -11.5 -2.5t-20.5 -6t-27 -14t-32 -26.5q-34 -35 -46 -57t-19 -57q-6 -35 -1.5 -109t15.5 -81q11 -8 48.5 10.5t47.5 32.5q5 7 -4.5 111t0.5 126
q11 22 18 30t24.5 12.5t50.5 0.5q23 -2 51.5 -31t49 -62.5t39 -61.5t25.5 -28q17 0 40.5 25t24.5 43q1 21 -29.5 64.5t-61.5 55.5zM598 -128q-8 0 -13 4q-17 11 -21 92.5t3 109.5q6 37 19 60t48 60q38 39 90 51h2l3 1q12 6 86.5 -3t104.5 -22q33 -13 65.5 -59.5t31.5 -70.5
q-1 -23 -28 -51.5t-48 -28.5q-9 0 -19.5 12.5t-32.5 47.5q-16 26 -26 40.5t-27 36.5t-32 33.5t-28 12.5q-16 2 -26.5 2.5t-18.5 -1.5t-12.5 -3.5t-9.5 -8t-7.5 -10.5t-7.5 -15q-10 -20 2 -140q5 -53 5 -70t-4 -28q-12 -17 -51 -36q-29 -16 -48 -16zM598 -106q9 -2 40 13.5
t39 26.5q3 9 -4 84q-11 127 0 152q12 24 20.5 33.5t28.5 14.5t56 1q17 -1 34.5 -12.5t36 -35t29.5 -39.5t30 -45q28 -45 35 -50q12 2 31.5 23t20.5 35q0 16 -28 56.5t-56 52.5q-27 11 -92.5 18.5t-81.5 5.5q-3 -1 -9 -2q-43 -9 -78 -44q-33 -34 -44.5 -54t-16.5 -54
q-6 -37 -2.5 -102t11.5 -78zM737 214q-21 9 -50.5 -16.5t-50 -67.5t-18.5 -77q2 -34 12 -55.5t22 -25.5t24 1q1 2 -9.5 97.5t0.5 113.5q10 22 17 30t24.5 12.5t51.5 1.5q23 -3 51.5 -25t49 -48t38 -47t22.5 -21q39 0 10 46q-7 11 -17 23q-15 17 -48.5 27t-73 17t-55.5 14z
M700 229q97 59 159 -40q13 -22 20 -46.5t6 -48.5t-16 -42t-44 -23q-133 -24 -160 30q-13 25 -18 53t7 62t46 55zM750 10q-73 0 -95 44q-14 27 -19 57.5t8 67.5t50 60q106 64 174 -44q19 -30 25.5 -64.5t-5.5 -67.5q-16 -36 -61 -45q-47 -8 -77 -8zM768 240q-28 0 -62 -21
q-28 -17 -40 -42.5t-8.5 -50t8 -39t9.5 -22.5q24 -46 149 -24q33 5 45 31q9 27 3 56t-22 55q-36 57 -82 57zM750 12q-71 0 -94 43q-13 26 -18.5 56t7.5 66.5t50 59.5q105 63 171 -43q18 -30 24.5 -64t-4.5 -66q-16 -35 -60 -43q-39 -9 -76 -9zM768 242q-29 0 -62 -21
q-29 -18 -41.5 -44t-8.5 -51t8.5 -39.5t8.5 -23.5q13 -24 49 -30t102 5q35 6 46 33q9 27 3 56.5t-22 55.5q-36 59 -83 59zM946 92q-9 0 -11 8q-10 35 -41 69q-8 8 1 16q8 8 16 -1q35 -38 45 -78q3 -11 -8 -13q-1 -1 -2 -1z" />
    <glyph glyph-name="image" unicode="&#xe612;" 
d="M664 568.5q0 -43.5 30 -74t72 -30.5t72 30.5t30 74t-30 74t-72 30.5t-72 -30.5t-30 -74zM821 857h-618q-85 0 -144 -59t-59 -144v-540q0 -85 59 -144t144 -59h618q85 0 144 59t59 144v540q0 85 -59 144t-144 59zM942 286q-50 -15 -104.5 -24t-121.5 -2.5t-106 36.5
q-65 51 -133.5 79.5t-123.5 35t-111 -0.5t-91.5 -18.5t-68.5 -27.5v290q0 51 35 86t86 35h618q51 0 86 -35t35 -86v-368z" />
    <glyph glyph-name="ditu" unicode="&#xe635;" 
d="M292 681q46 67 124 100q-78 -30 -124 -100zM317 346v0v0zM330 323l-1 1zM315 351zM312 356q-27 52 -43 95q16 -42 43 -95zM277 513q8 -55 67 -170t112 -202.5t55 -87.5q-102 130 -179 267q24 -42 54 -90q57 -90 125 -181q6 9 13 18q37 59 76 124.5t90.5 169t58.5 152.5
q5 40 4 70.5t-12.5 58t-23.5 47t-30 37t-31.5 27.5t-28.5 19q-55 27 -116 27q-46 0 -88 -15q-7 -3 -14 -7t-20.5 -12t-24.5 -17t-25.5 -22.5t-24.5 -28.5t-21 -35t-15 -42t-6 -49.5t5 -57.5zM510.5 671q58.5 0 100.5 -41.5t42 -100.5t-42 -100.5t-100.5 -41.5t-100.5 41.5
t-42 100.5t42 100.5t100.5 41.5zM497 10l14 -17l13 17q70 92 140 202q142 224 142 325q0 60 -23 115q-23 53 -63.5 94t-93.5 63q-55 24 -115 24t-115 -24q-53 -22 -94 -63t-64 -94q-23 -55 -23 -115q0 -101 142 -325q70 -110 140 -202zM429 786q-2 -1 -6 -2q42 15 88 15
q61 0 116 -27l-30 14q4 -1 10.5 -4t26 -13t37 -23t38.5 -35t36 -48t24.5 -63.5t7.5 -79.5q-8 -48 -38.5 -113.5t-67.5 -125.5t-72.5 -112.5t-59.5 -84.5l-24 -31q3 5 9 14q-7 -9 -13 -18q-68 91 -125 181q-30 48 -54 90q-1 2 -3 4l-12 22v0q-1 3 -2 5q-1 1 -2 4l-1 1
q-28 53 -43 95q-15 38 -21 69q-3 92 44 161q46 70 124 100zM510.5 387q58.5 0 100.5 41.5t42 100.5t-42 100.5t-100.5 41.5t-100.5 -41.5t-42 -100.5t42 -100.5t100.5 -41.5zM619 529q0 -45 -32 -76.5t-76.5 -31.5t-76.5 31.5t-32 76.5t32 76.5t76.5 31.5t76.5 -31.5
t32 -76.5zM736 59q-30 14 -81 23l-1 -3h-1q-5 0 -9 -3t-5 -9q-1 -13 11 -14l-1 -4q44 -8 70 -19q20 -9 22 -16q0 -2 -5 -6t-20.5 -10.5t-37.5 -12.5q-70 -16 -167.5 -16t-166.5 16q-23 6 -38.5 12.5t-20.5 10.5t-5 6q1 3 8.5 8.5t31.5 14t59 13.5v4q11 3 9 15q-1 12 -13 11
l-1 4q-55 -9 -87 -24q-41 -18 -41 -46q0 -22 28 -39q21 -12 57 -21q75 -19 179.5 -19t179.5 19q37 9 57 21q28 17 28 39q0 27 -39 45zM292 681q-47 -69 -44 -161q6 -31 21 -69q16 -43 43 -95l1 -1q2 -4 4 -9v0q7 -13 15 -26q77 -137 179 -267q-9 13 -23.5 36.5t-53 88.5
t-68.5 121t-57 118t-32 96q-7 30 -5 57.5t6 49.5t15 42t21 35t24.5 28.5t25.5 22.5t24.5 17t20.5 12t14 7l6 2q-5 -2 -13 -5q-78 -33 -124 -100zM749 513q-7 -49 -58.5 -152.5t-90.5 -169t-76 -124.5l-9 -14q9 12 25 33t57.5 81t75 115.5t65 122.5t39.5 115q2 58 -16 106.5
t-44 76.5t-54.5 48t-46 27.5t-19.5 7.5q12 -4 30 -14q15 -9 28.5 -19t31.5 -27.5t30 -37t23.5 -47t12.5 -58t-4 -70.5z" />
    <glyph glyph-name="tangerine" unicode="&#xe601;" 
d="M566 411q-350 0 -350 -216q0 -121 90 -190q86 -25 206 -25q96 0 170 16.5t117 42.5t70.5 62.5t37 72t9.5 75.5q0 14 -1 28q-53 61 -145 97.5t-204 36.5zM516 519q-9 27 -21 54q64 0 109.5 6t87 21t70.5 41.5t51.5 67.5t38.5 99l9 34h-35q-65 0 -110.5 -4.5t-88 -17.5
t-72 -36.5t-53.5 -60t-41 -88.5q-61 96 -151 149l-27 -46q61 -37 106 -95t70 -126q-83 -4 -147 -22.5t-101.5 -44.5t-61.5 -61t-32.5 -68.5t-8.5 -71.5q0 -40 9.5 -75.5t37 -72t70.5 -62.5t117 -42.5t170 -16.5t170 16.5t117 42.5t70.5 62.5t37 72t9.5 75.5t-9.5 75.5
t-36.5 72t-70 62.5t-115.5 42.5t-168.5 17.5zM789 788q-30 -92 -90 -125t-184 -36q31 92 91 125t183 36zM512 34q-350 0 -350 215q0 204 313 215q7 -27 9 -53h-53v-54h162v54h-55q-2 27 -7 53q331 -5 331 -215q0 -215 -350 -215zM705 276v-1q0 -13 -9 -22t-22 -9t-22 9
t-9 22v1q0 13 9 21.5t21.5 8.5t21.5 -8.5t10 -21.5zM759 168v-1q0 -12 -9.5 -21t-22 -9t-21.5 9t-9 21v1q0 13 9 21.5t21.5 8.5t21.5 -8.5t10 -21.5zM651 115v-1q0 -13 -9 -22t-22 -9t-22 9t-9 22v0q0 13 9 22t21.5 9t21.5 -9t10 -21z" />
    <glyph glyph-name="text" unicode="&#xe6a5;" 
d="M865 220q-10 -54 -46 -112q-2 -3 -10 -13.5t-10 -12.5q-21 -21 -26 -21q-38 -30 -107 -51q-99 -24 -154 -15q-92 0 -154 15q-60 14 -107 51q-3 3 -13 10.5t-12.5 10t-10.5 13t-10 13.5q-36 58 -46 112q-16 67 -16 164t16 164q10 54 46 112q0 11 20.5 31.5t25.5 20.5
q38 30 107 51q99 24 154 15q92 0 154 -15q60 -14 107 -51q3 -3 13 -10.5t12.5 -10t10.5 -13t10 -12.5q36 -59 46 -113q16 -67 16 -164q0 -102 -16 -169zM1019 384q0 143 -37 235.5t-106 153.5q-73 65 -163 91.5t-206 26.5t-206 -26.5t-163 -91.5q-66 -62 -102 -154.5
t-36 -234.5q0 -143 37 -235.5t106 -153.5q73 -65 163 -91.5t206 -26.5t206 26.5t163 91.5q66 62 102 154.5t36 234.5zM553 512h164v77h-410v-77h164v-333h77v333h5z" />
    <glyph glyph-name="xuegao" unicode="&#xe604;" 
d="M446 106h132v-213h-132v213zM554 85v0q2 0 2 -2v-166v0q0 -2 -2 -2h-85v0q-2 0 -2 2v166q0 2 2 2h85zM554 128h-85q-19 0 -32 -13t-13 -32v-166q0 -19 13 -32t32 -13h85q19 0 32 13t13 32v166q0 19 -13 32t-32 13zM327 81q-46 0 -79 33t-33 79v359v8q0 123 87 210t210 87
t209.5 -87t86.5 -210v-8v-359q0 -46 -32.5 -79t-78.5 -33h-370zM512 827q114 0 194.5 -80.5t80.5 -194.5v-359q0 -37 -26.5 -63.5t-63.5 -26.5h-370q-38 0 -64 26.5t-26 63.5v359q0 114 80.5 194.5t194.5 80.5zM512 870v0q-132 0 -225 -93t-93 -225v-359q0 -55 39 -94
t94 -39h370v0q55 0 94 39t39 94v359q0 132 -93.5 225t-224.5 93zM727 256q-3 -1 -6 -1t-6 1q-23 2 -43 14q-21 13 -45 21q-13 4 -27 4q-35 -2 -67 -18q-19 -10 -41 -13q-21 4 -40 14q-20 10 -42 16q-11 3 -23 3q-24 -1 -45 -15q-25 -15 -55 -17h-5q-14 0 -30.5 8.5
t-24.5 20.5q-11 13 -18.5 34.5t-7.5 39.5v1v208q0 123 87 210t209 87h29q123 -1 209.5 -87.5t86.5 -209.5v-208q1 -6 1 -12q0 -16 -8 -36.5t-19 -32.5q-11 -13 -31.5 -22.5t-37.5 -9.5zM526 852q114 0 194.5 -80.5t80.5 -194.5v-211q1 -5 1 -9q0 -13 -6.5 -29.5t-15.5 -25.5
q-9 -10 -24.5 -17.5t-28.5 -7.5h-4.5h-4.5q-19 2 -35 12q-24 14 -50 22q-17 4 -33 4q-40 -2 -75 -19q-16 -8 -32 -11q-17 5 -33 13q-21 11 -45 17q-13 3 -28 3q-30 0 -55 -17q-21 -13 -46 -15h-4q-22 0 -41 23.5t-19 59.5v208q0 114 81 194.5t194 80.5h29zM526 895h-29v0
q-131 0 -224.5 -93t-93.5 -225v-208q0 -52 31 -89t72 -37h7q33 3 59 17.5t39 14.5q10 0 19 -3q10 -2 42 -16t44 -14q17 0 52 15.5t55 15.5v0q11 0 21 -3q20 -6 42.5 -18t47.5 -16q8 -2 16 -2q49 2 83.5 37t34.5 84q0 7 -1 13v209v0q0 131 -93 224.5t-224 93.5zM766 615h-4
q-29 0 -57 11q-10 4 -16 10t-7.5 10.5l-5.5 16.5q-5 24 -21 42q-13 12 -34.5 22.5t-39.5 13.5q-17 2 -37.5 12.5t-31.5 22.5q-24 26 -22 98h37q105 -1 190.5 -75.5t101.5 -178.5q-26 -5 -53 -5v0zM526 852q90 0 169 -63t99 -151l-28 -2h-4q-26 0 -50 9q-8 4 -10.5 7.5
t-5.5 16.5q-7 29 -26 51q-15 14 -40 26.5t-46 15.5q-14 2 -31 10.5t-27 18.5q-13 15 -16 62h15zM525 896h-28q-19 0 -28 -1q-5 -97 27 -132q22 -24 49 -33t52 -15t43 -24q9 -9 13.5 -27t13.5 -33t30 -24q32 -12 66 -12h3q39 0 76 9q-10 121 -102.5 206t-213.5 85z" />
    <glyph glyph-name="shutiao" unicode="&#xe605;" 
d="M155 847l77 4l29 -542l-77 -4zM212 829l27 -500l-35 -2l-26 500zM252 875l-119 -7l31 -586l120 7zM280 828h77v-543h-77v543zM336 807v-501h-35v501h35zM378 849h-120v-585h120v585zM299 764h77v-544h-77v544zM355 742v-500h-35v500h35zM397 785h-120v-586h120v586z
M404 844h77v-543h-77v543zM460 823v-501h-34v501h34zM503 865h-120v-586h120v586zM443 799h77v-543h-77v543zM499 778v-501h-35v501h35zM542 821h-120v-586h120v586zM538 314l37 542l77 -5l-37 -542zM595 832l35 -2l-35 -500l-35 3zM556 879l-41 -585l120 -8l40 584z
M681 832l77 1l7 -543l-77 -1zM737 812l6 -501h-34l-6 500h34v1zM780 853h-120l7 -585l120 1l-8 586zM739 333l63 539l77 -9l-64 -539zM820 849l35 -4l-58 -498l-35 4zM783 896l-68 -582l119 -14l68 582zM239 -107q-18 0 -31 12.5t-14 30.5l-51 674q0 10 10 10v0h718v0
q10 0 10 -10v-1l-51 -674q-1 -17 -14 -29.5t-31 -12.5h-546zM858 598l-49 -661q-1 -9 -8 -15t-16 -6h-546q-9 0 -16 6t-8 15l-50 661h693zM871 641h-718v0q-13 0 -22 -9t-9 -22v-1l50 -675q2 -26 21.5 -44t45.5 -18h546q26 0 45.5 18t21.5 44l50 675v2q0 13 -9 22t-22 9v-1z
M301 181q-11 0 -12 6l-11 140q0 2 1 3q5 4 10 4h1h444h1q6 0 10 -4q1 -1 1 -3l-11 -140q0 -6 -12 -6h-422zM723 313l-8 -111h-406l-8 111h422zM734 355h-444h-3q-12 0 -21 -8.5t-9 -20.5l11 -140q2 -11 11 -18.5t20 -7.5h2h422h2q11 0 20 7.5t11 18.5l11 140q0 12 -9 20.5
t-21 8.5h-3z" />
    <glyph glyph-name="tiantong" unicode="&#xe606;" 
d="M391 -107q-12 0 -23 9.5t-13 21.5l-65 439h444l-65 -439q-2 -12 -12.5 -21.5t-23.5 -9.5h-242zM709 341l-61 -414q-1 -5 -5.5 -8.5t-9.5 -3.5h-242q-5 0 -9.5 3.5t-4.5 8.5l-62 414h394zM759 384h-494l69 -463q3 -20 20 -34.5t37 -14.5h242q20 0 37 14.5t20 34.5z
M520 731zM376 731v0q0 -60 42.5 -102t102 -42t101.5 42t42 102v0q0 59 -42 101.5t-101.5 42.5t-102 -42.5t-42.5 -101.5v0zM520 853q51 0 86.5 -36t35.5 -86.5t-35.5 -86.5t-86.5 -36t-87 36t-35.5 87t36 86.5t86.5 35.5zM520 896q-68 0 -116.5 -48.5t-48.5 -116.5
t48.5 -116.5t116.5 -48.5t116.5 48.5t48.5 116.5t-48.5 116.5t-116.5 48.5zM645 582zM494 581.5q0 -62.5 44 -106.5t106.5 -44t106.5 44t44 106.5t-44 106.5t-106.5 44t-106.5 -44t-44 -106.5zM645 711v0q53 0 91 -38t38 -91.5t-38 -91.5t-91.5 -38t-91 38t-37.5 91.5
t37.5 91.5t91.5 38zM645 753q-71 0 -121.5 -50t-50.5 -121.5t50.5 -121.5t121.5 -50t121 50t50 121.5t-50 121.5t-121 50zM392 580zM229 580.5q0 -67.5 48 -115.5t115.5 -48t115 48t47.5 115.5t-47.5 115t-115 47.5t-115.5 -47.5t-48 -115zM392 722q59 0 100.5 -41.5
t41.5 -100t-41.5 -100.5t-100.5 -42t-100.5 42t-41.5 100.5t41.5 100t100.5 41.5zM392 765h-1q-76 0 -130 -54t-54 -130.5t54 -130.5t130.5 -54t130.5 54t54 130v0q0 76 -54 130.5t-130 54.5zM258 323q-19 0 -32 13t-13 31v85q0 10 10 10h578v0q10 0 10 -10v-85
q0 -18 -13 -31t-32 -13h-508zM789 441v-74q0 -9 -6.5 -16t-16.5 -7h-508q-10 0 -16.5 7t-6.5 16v74h554zM801 484h-578v0q-13 0 -22 -9.5t-9 -21.5v-86q0 -27 19.5 -46t46.5 -19h508v0q27 0 46.5 19t19.5 46v85q0 13 -9 22t-22 9v1z" />
    <glyph glyph-name="bingjiling" unicode="&#xe607;" 
d="M37 415q0 96 38 184t101.5 151t151.5 100.5t184 37.5q97 0 184.5 -37.5t151.5 -101t101.5 -151.5t37.5 -184v-2l-230 -214l-334 -13zM512 851q117 0 219 -58t164.5 -156.5t68.5 -215.5l-215 -201l-319 -13l-370 221q7 114 70.5 211.5t165 154.5t216.5 57zM512 896v0
q-100 0 -192 -39t-158.5 -105t-106.5 -157.5t-41 -192.5l403 -240l349 14l244 226q-1 101 -41 192.5t-106.5 157.5t-158.5 105t-192 39v0zM152 -104q-18 0 -32.5 12.5t-16.5 30.5l-63 452q20 11 43 11q2 0 4 -1h11q21 -1 33.5 -11.5t25.5 -31.5q7 -16 24.5 -29.5t35.5 -15.5
h12q2 -1 5 -1q21 0 44.5 13.5t34.5 32.5q5 11 18 19t25 8q2 0 3 -1h5q20 0 33.5 -6t19 -13t15.5 -23q10 -25 37 -42.5t54 -17.5h3q22 0 37 13t30 34q24 34 43 36h11q22 0 35 -9t30 -30q10 -15 30 -27.5t38 -14.5h7q13 2 24.5 10t17.5 16t16 23q12 18 19 27.5t22 19.5t32 12
h6.5h6.5q26 0 51 -7l-61 -446q-2 -18 -16.5 -30.5t-32.5 -12.5h-720zM87 379h9q14 -1 21.5 -7.5t19.5 -25.5q10 -21 33 -37.5t46 -19.5h13q3 -1 6 -1q26 0 55 16.5t43 38.5q8 12 12 14.5t15 2.5h5q20 0 27.5 -5.5t17.5 -24.5q13 -30 45.5 -51t65.5 -21h3q21 0 40 10.5
t27.5 20t20.5 25.5q20 26 26 27h9q13 0 22 -6t25 -25q12 -19 37.5 -34t48.5 -16h9q18 2 33.5 12.5t23 20t19.5 26.5q15 23 27 34.5t29 13.5h10q12 0 24 -2l-59 -423q-1 -9 -8 -15.5t-17 -7.5h-719q-10 1 -17 7.5t-8 15.5l-60 434q9 2 19 2h1v1zM87 426q-5 1 -9 1
q-15 0 -33.5 -7.5t-30.5 -17.5l65 -466q4 -27 25 -45.5t48 -18.5h720q27 0 48 18.5t25 45.5l65 466q-39 13 -79 15h-7.5h-7.5q-28 -4 -49.5 -21t-32.5 -35.5t-23.5 -34.5t-25.5 -17h-4q-16 0 -30.5 12.5t-25.5 28t-31.5 28t-46.5 12.5h-6.5h-6.5q-18 -2 -33.5 -15.5
t-25 -28.5t-23 -27t-27.5 -12q-26 0 -42 10.5t-24.5 25.5t-17.5 30t-28 25.5t-49 10.5h-6q-21 -1 -35.5 -8.5t-22 -18t-15 -20.5t-21.5 -17t-35 -7h-11q-15 1 -27 14.5t-20 29.5t-26.5 30t-45.5 16h-12v-2zM910 605h-4q-25 0 -41 18q-22 30 -55.5 43t-88.5 13h-45
q-24 0 -33 6.5t-21 29.5q-16 33 -41 59q-12 13 -33 22.5t-39 9.5v0q-18 -1 -36 -4q-17 -4 -35 -4v0q-18 0 -35 6q-13 6 -24.5 19.5t-15.5 26.5q30 10 73.5 17t75.5 7q122 0 246.5 -77.5t178.5 -186.5q-13 -5 -27 -5v0zM512 851q107 0 221 -65.5t168 -157.5q-10 1 -17 8
q-28 39 -68.5 52.5t-94.5 13.5h-44q-16 0 -20 3t-14 20q-17 37 -45 65q-15 16 -40.5 27t-47.5 11h-1q-20 0 -39 -4q-16 -3 -32 -3v0q-14 0 -28 5q-8 3 -14 10q56 15 114 15h2zM512 896v0q-38 0 -90 -9.5t-88 -23.5q19 -64 61 -81q21 -7 43 -7h1q13 0 36.5 3.5t33.5 3.5v0
q15 0 31.5 -7.5t25.5 -17.5q16 -16 28.5 -37.5t18.5 -34t22 -21.5t43 -9h43q50 0 79 -10.5t47 -34.5q9 -12 26.5 -20t32.5 -8h4q31 0 57 18q-36 80 -109.5 148.5t-165.5 108t-180 39.5z" />
    <glyph glyph-name="guozhi" unicode="&#xe608;" 
d="M276 -107v0q-8 0 -14 6t-6 14l-16 768v1q0 11 8.5 19.5t19.5 8.5v0h447v0q11 0 19 -8.5t8 -19.5v-1l-15 -768q0 -8 -6 -13.5t-14 -5.5v0zM715 688q6 0 6 -6l-15 -768h-429l-15 769q0 6 6 6h447v-1zM715 732h-447v0q-20 0 -34.5 -14.5t-14.5 -34.5v-2l16 -768
q0 -17 12 -29t29 -12v0h431v0q17 0 29 12t12 29l16 768v0q0 21 -14.5 35t-34.5 14v0v2zM276 -107v0q-8 0 -14 6t-6 14l-10 496h491l-10 -496q0 -8 -6 -14t-14 -6v0h-431zM715 388l-9 -473h-429l-9 473h448h-1zM758 430h-534l11 -517q0 -17 12 -29t29 -12v0h431v0q17 0 29 12
t12 29l11 517h-1zM527 -57q-26 0 -52 5l90 845q1 8 7.5 15t14.5 9l178 54q12 -27 18 -56l-159 -45l-89 -827h-8zM752 845q3 -8 5 -14l-124 -37l-28 -8l-2 -28l-87 -793l-18 1l88 823q1 5 6 7zM772 896l-192 -58q-13 -4 -23.5 -16.5t-12.5 -26.5l-93 -859q0 -6 25.5 -10
t50.5 -4q27 0 28 5l91 826l157 46q5 1 -0.5 25t-15.5 48t-15 24zM492 731h178v-43h-178v43zM492 430h178v-42h-178v42z" />
    <glyph glyph-name="yongquan" unicode="&#xe609;" 
d="M512 -107q-100 0 -191 39t-156.5 105t-104.5 156.5t-39 190.5t39 191t104.5 156.5t156.5 104.5t191 39t190.5 -39t156.5 -104.5t105 -156.5t39 -191t-39 -190.5t-105 -156.5t-156.5 -105t-190.5 -39zM512 627v0q-101 0 -172 -71t-71 -172t71 -172t172 -71t172 71t71 172
t-71.5 172t-171.5 71zM512 853q95 0 182 -37t150 -100t100 -150t37 -182t-37 -182t-100 -150t-150 -100t-182 -37t-182 37t-150 100t-100 150t-37 182t37 182t100 150t150 100t182 37zM512 120q109 0 186.5 77.5t77.5 186.5t-77.5 186.5t-186.5 77.5t-186.5 -77.5
t-77.5 -186.5t77.5 -186.5t186.5 -77.5zM512 896v0q-104 0 -199 -40.5t-163.5 -109t-109 -163.5t-40.5 -199t40.5 -199t109 -163.5t163.5 -109t199 -40.5t199 40.5t163.5 109t109 163.5t40.5 199t-40.5 199t-109 163.5t-163.5 109t-199 40.5zM512 162v0q-92 0 -157 65
t-65 157t65 157t157 65t157 -65t65 -157v0q0 -92 -65 -157t-157 -65zM512 -107v0q-33 0 -77.5 7.5t-75.5 17.5l52 245q20 -9 49.5 -15.5t51.5 -6.5t51.5 6.5t49.5 15.5l52 -245q-31 -10 -75.5 -17.5t-76.5 -7.5h-1zM597 134l43 -202q-63 -17 -128 -17t-128 17l43 202
q41 -14 85 -14t85 14zM628 195q-22 -13 -56 -23t-60 -10t-60 10t-56 23l-62 -291q36 -13 88 -22.5t90 -9.5t90 9.5t87 22.5zM613 605q-20 9 -49.5 15.5t-51.5 6.5t-51.5 -6.5t-49.5 -15.5l-52 245q31 10 76 17.5t77 7.5t77 -7.5t76 -17.5zM512 853v0q65 0 128 -17l-43 -202
q-41 14 -85 14t-85 -14l-43 202q63 17 128 17v0zM512 896h-1q-37 0 -89 -9.5t-88 -22.5l62 -291q22 13 56 23t60 10t60 -10t56 -23l61 291q-35 13 -87 22.5t-90 9.5v0zM733 283q9 20 15.5 49.5t6.5 51.5t-6.5 51.5t-15.5 49.5l245 52q10 -31 17.5 -75.5t7.5 -77t-7.5 -77.5
t-17.5 -75zM964 512q17 -63 17 -128t-17 -128l-202 43q14 41 14 85t-14 85zM992 562l-291 -62q13 -22 23 -56t10 -60t-10 -60t-23 -56l291 -61q13 35 22.5 87t9.5 90t-9.5 90t-22.5 88zM46 231q-10 31 -17.5 76t-7.5 77t7.5 77t17.5 76l245 -52q-9 -20 -15.5 -49.5
t-6.5 -51.5t6.5 -51.5t15.5 -49.5zM60 512l202 -43q-14 -41 -14 -85t14 -85l-202 -43q-17 63 -17 128t17 128zM32 562q-14 -36 -23 -88t-9 -90t9 -90t23 -87l291 61q-13 22 -23 56t-10 60t10 60t23 56z" />
    <glyph glyph-name="CD" unicode="&#xe60a;" 
d="M512 -107v0q-100 0 -190.5 39t-156.5 105t-105 156.5t-39 190.5t39 190.5t105 156.5t156.5 105t190.5 39t190.5 -39t156.5 -105t105 -156.5t39 -190.5t-39 -190.5t-105 -156.5t-156.5 -105t-190.5 -39zM512 853q95 0 182 -37t150 -100t100 -150t37 -182t-37 -182
t-100 -150t-150 -100t-182 -37t-182 37t-150 100t-100 150t-37 182t37 182t100 150t150 100t182 37zM512 896q-139 0 -257 -68.5t-186.5 -186.5t-68.5 -257t68.5 -257t186.5 -186.5t257 -68.5t257 68.5t186.5 186.5t68.5 257t-68.5 257t-186.5 186.5t-257 68.5zM465 366
l-180 453q61 32 128 45l147 -463l179 -452q-60 -32 -128 -46zM398 839l141 -444v-3l172 -433q-42 -20 -86 -31l-140 445v3l-173 433q41 19 86 30v0zM427 889q-37 -6 -86.5 -23.5t-82.5 -36.5l186 -470l153 -480q37 6 86.5 23.5t82.5 36.5l-186 470zM512 192
q-79 0 -135.5 56.5t-56.5 135.5t56.5 135.5t135.5 56.5t135.5 -56.5t56.5 -135.5t-56.5 -135.5t-135.5 -56.5zM512 555v0q71 0 121 -50t50 -121t-50 -121t-121 -50t-121 50t-50 121t50 121t121 50zM512 597q-88 0 -150.5 -62.5t-62.5 -150.5t62.5 -150.5t150.5 -62.5
t150.5 62.5t62.5 150.5t-62.5 150.5t-150.5 62.5zM512 384zM421 384q0 -38 26.5 -64.5t64.5 -26.5t64.5 26.5t26.5 64.5t-26.5 64.5t-64.5 26.5t-64.5 -26.5t-26.5 -64.5zM512 453q29 0 49 -20t20 -49t-20 -49t-49 -20t-49 20t-20 49t20 49t49 20zM512 496q-46 0 -79 -33
t-33 -79t33 -79t79 -33t79 33t33 79t-33 79t-79 33z" />
    <glyph glyph-name="pingzi" unicode="&#xe60b;" 
d="M301 -107q-14 0 -24 10.5t-10 24.5v568q0 31 37 94t79 116l4 5v76h249v-76l5 -5q41 -53 78.5 -116t37.5 -94v-568q0 -14 -10 -24.5t-24 -10.5h-422zM615 765v-61l9 -12q43 -54 77.5 -113t34.5 -83v-568q0 -5 -4 -9t-9 -4h-422q-5 0 -9 4t-4 9v568q0 24 34.5 82.5
t77.5 113.5l9 12v61h206v0zM658 808h-292v-89q-5 -6 -13 -17t-29 -41t-37 -57t-29 -58t-13 -50v-568q0 -23 16.5 -39.5t39.5 -16.5h422v0q23 0 39.5 16.5t16.5 39.5v568q0 63 -113 213l-8 10v89v0zM322 875h380v-107h-380v107zM681 853v-64h-338v64h338zM696 896h-368v0
q-11 0 -19.5 -8t-8.5 -20v-94v0q0 -11 8.5 -19t19.5 -8h368q11 0 19 8t8 19v94q0 12 -8 20t-19 8v0zM267 427h490v-342h-490v342zM736 405v-298h-448v298h448zM779 448h-534v-384h534v384z" />
    <glyph glyph-name="liwu" unicode="&#xe60c;" 
d="M131 430h766v-536h-766v536zM873 409v0q3 0 3 -3v-489q0 -2 -3 -2h-718q-2 0 -2 2v489q0 3 2 3h718v0zM873 451h-718v0q-19 0 -32 -13t-13 -32v-489q0 -19 13 -32t32 -13h718h1q18 0 31.5 13t13.5 32v0v489q0 19 -13.5 32t-31.5 13h-1v0zM65 606h894v-188h-894v188z
M937 585v-146h-851v146h851zM943 627h-863q-15 0 -26 -10.5t-11 -26.5v-156q0 -15 11 -26t26 -11h863v0q15 0 26 10.5t11 26.5v156q0 16 -11 26.5t-26 10.5zM584 612h-8q-20 0 -46.5 8t-43.5 18q20 35 47.5 71.5t63.5 76t76.5 64.5t76.5 25q19 -1 41 -10.5t35 -23.5
q52 -51 31 -105q-20 -49 -94.5 -86.5t-178.5 -37.5v0zM750 853q15 0 32.5 -8t28.5 -19q42 -41 26 -82q-17 -43 -87 -76.5t-166 -33.5h-7q-32 0 -61 13q22 33 47 65.5t56.5 66t66 54t64.5 20.5zM750 896q-41 0 -86 -27.5t-80.5 -66t-65 -77.5t-45.5 -67l-16 -27
q22 -16 57.5 -28t63.5 -12h7q46 0 90.5 8.5t79.5 23.5t63 35t44 44t21 49.5t-6 52.5t-37 52q-15 16 -41.5 28t-48.5 12zM490 627h43v-754h-43v754zM512 619q-90 1 -159.5 15t-110 36.5t-62 48t-24.5 52.5q-5 34 17.5 61t61.5 36q20 5 41 5q39 0 75 -20t61 -48.5t46.5 -66.5
t33 -65t20.5 -54zM276 852q31 0 60.5 -15t50.5 -37t41 -52t31.5 -55t22.5 -52q-81 3 -142.5 17.5t-94.5 35t-49.5 40.5t-18.5 40q-3 25 14.5 45.5t49.5 27.5q17 5 36 5h-1zM277 895h-1q-24 0 -46 -6q-67 -16 -89 -70q-25 -62 28 -120q88 -95 327 -101h29h16q-2 6 -5 17
t-14.5 41.5t-25.5 58.5t-37 62.5t-48.5 59t-61 41.5t-73.5 17h1z" />
  </font>
</defs>
</svg>
